<svg preserveAspectRatio="none" width="100%" height="100%" overflow="visible" style="display: block;" viewBox="0 0 146 146" fill="none" xmlns="http://www.w3.org/2000/svg">
<path id="Union" fill-rule="evenodd" clip-rule="evenodd" d="M146 73C146 113.317 113.317 146 73 146C32.6833 146 0 113.317 0 73C0 32.6827 32.6833 0 73 0C113.317 0 146 32.6827 146 73ZM109.183 120.002C99.1698 127.721 86.6207 132.312 73 132.312C40.2427 132.312 13.6875 105.757 13.6875 73C13.6875 59.3793 18.279 46.8302 25.9988 36.8175L109.183 120.002ZM118.993 110.455L35.5454 27.0074C45.7576 18.6811 58.7957 13.6875 73 13.6875C105.757 13.6875 132.312 40.2427 132.312 73C132.312 87.2043 127.319 100.242 118.993 110.455Z" fill="var(--fill-0, #EA3223)"/>
</svg>
