<svg preserveAspectRatio="none" width="100%" height="100%" overflow="visible" style="display: block;" viewBox="0 0 23.9997 21.5659" fill="none" xmlns="http://www.w3.org/2000/svg">
<path id="icon" fill-rule="evenodd" clip-rule="evenodd" d="M17.3234 1.93848C15.8154 0.727242 13.9207 0 11.8615 0C7.8116 0.000193263 4.46208 2.77954 3.30587 6.54102L2.30196 5.47949C1.79609 4.94447 0.952279 4.92092 0.417197 5.42676C-0.117791 5.93264 -0.141364 6.77645 0.364463 7.31152L3.23556 10.3486C3.64706 10.7839 4.29882 10.8914 4.82833 10.6113L8.65646 8.58691C9.30739 8.24263 9.5564 7.43511 9.21212 6.78418C8.86781 6.13352 8.06117 5.88546 7.41036 6.22949L5.96017 6.99512C6.8836 4.43403 9.21598 2.6662 11.8615 2.66602C13.2787 2.66602 14.5912 3.16429 15.6535 4.01758C16.1205 4.39269 16.5395 4.83686 16.8957 5.33691C17.1108 5.63884 17.3029 5.96137 17.469 6.30078C17.7927 6.96189 18.5909 7.23551 19.2522 6.91211C19.9136 6.58843 20.1881 5.78935 19.8645 5.12793C19.6344 4.65788 19.3672 4.21069 19.0676 3.79004C18.5715 3.09354 17.9843 2.46934 17.3234 1.93848ZM6.67623 19.6274C8.18426 20.8386 10.079 21.5659 12.1381 21.5659C16.1881 21.5657 19.5376 18.7864 20.6938 15.0249L21.6977 16.0864C22.2036 16.6214 23.0474 16.645 23.5825 16.1391C24.1175 15.6333 24.141 14.7894 23.6352 14.2544L20.7641 11.2173C20.3526 10.782 19.7009 10.6745 19.1714 10.9546L15.3432 12.979C14.6923 13.3233 14.4433 14.1308 14.7876 14.7817C15.1319 15.4324 15.9385 15.6804 16.5893 15.3364L18.0395 14.5708C17.1161 17.1319 14.7837 18.8997 12.1381 18.8999C10.721 18.8999 9.40852 18.4016 8.34616 17.5483C7.87918 17.1732 7.46017 16.729 7.10397 16.229C6.88892 15.927 6.69683 15.6045 6.53073 15.2651C6.20701 14.604 5.40879 14.3304 4.74752 14.6538C4.0861 14.9775 3.81153 15.7765 4.13522 16.438C4.36526 16.908 4.63249 17.3552 4.93209 17.7759C5.42823 18.4724 6.01534 19.0965 6.67623 19.6274Z" fill="var(--fill-0, white)"/>
</svg>
