<svg preserveAspectRatio="none" width="100%" height="100%" overflow="visible" style="display: block;" viewBox="0 0 160 160" fill="none" xmlns="http://www.w3.org/2000/svg">
<g id="Group 37175">
<circle id="Ellipse 10" cx="80" cy="80" r="75" fill="var(--fill-0, #E5F6DB)" stroke="var(--stroke-0, #95E566)" stroke-width="10"/>
<g id="Group 37174">
<g id="Vector">
<path d="M81.0262 41.777C82.7512 43.1868 83.6165 44.6161 84.1114 46.7862V47.339C84.3574 47.2478 84.6007 47.1566 84.855 47.0626C86.7182 46.5346 88.8165 46.5014 90.6438 47.1317C91.545 47.7952 92.0619 48.3204 92.2499 49.4456C92.2518 50.8591 92.0278 51.9253 91.5782 52.644C91.3957 52.8099 91.2132 52.9758 91.0253 53.1444C91.6583 53.2826 92.2914 53.4098 92.9272 53.5314C93.5409 53.6503 94.1491 53.7775 94.7573 53.9157C95.9515 54.1755 97.1365 54.205 98.3124 54.0041C98.9012 53.5784 99.3739 53.1195 99.8715 52.5915C100.076 52.4008 100.278 52.21 100.488 52.0137C101.53 51.0213 102.465 49.9985 103.327 48.8429C105.265 46.2968 107.725 44.3755 110.929 43.7453C113.163 43.5434 115.062 43.7757 116.912 45.0971C118.744 46.6341 119.867 48.0053 120.152 50.4104C120.259 53.114 119.665 55.121 117.959 57.222C116.735 58.5268 115.3 59.3008 113.691 60.0555C113.981 60.2021 114.274 60.3513 114.573 60.5034C118.803 62.6762 122.609 65.1477 126.131 68.3489C126.372 68.5673 126.615 68.7857 126.861 69.0096C132.813 74.6712 136.694 82.8623 136.99 91.0866C137.142 98.3405 135.605 104.97 130.831 110.645C130.712 110.805 130.59 110.966 130.466 111.129C126.197 116.619 118.49 119.215 111.869 120.13C105.251 120.857 98.4368 120.393 91.8076 120.006C81.5819 119.408 71.3285 119.801 61.1111 120.415C50.5509 121.037 39.5981 120.135 31.3075 112.857C31.0974 112.671 30.8873 112.489 30.6717 112.298C25.7454 107.695 23.4177 100.934 23.0169 94.3348C22.746 85.964 25.7454 77.408 31.3102 71.1134C31.5093 70.8839 31.7083 70.6545 31.9129 70.4195C32.5321 69.7201 33.1624 69.0317 33.7983 68.3489C33.9807 68.1471 34.1659 67.9453 34.3539 67.738C37.4252 64.4953 41.1904 62.0957 45.1325 60.0555C45.3316 59.9505 45.5306 59.8482 45.7352 59.7404C45.9342 59.6381 46.1305 59.5386 46.3351 59.4335C46.5157 59.3414 46.6972 59.2474 46.8797 59.1516C47.1893 59.017 47.5284 58.9498 47.897 58.9498C47.7809 58.7424 47.6648 58.5351 47.5431 58.3222C47.3911 58.0513 47.239 57.7776 47.0842 57.4984C46.9322 57.2303 46.7829 56.9594 46.6281 56.6829C45.5389 54.5239 45.655 51.8672 46.3931 49.6031C47.3883 47.2202 48.8203 45.8932 51.148 44.8262C53.2987 43.9498 56.0411 43.9388 58.2443 44.6962C60.4891 45.7744 61.6612 47.5326 62.5292 49.8105C63.0379 51.3779 63.3337 52.879 63.3752 54.5266C64.0147 54.4363 64.6597 54.3442 65.3103 54.2502C65.2191 54.0456 65.1278 53.8383 65.0338 53.6282C64.2183 50.5679 64.821 47.4939 66.347 44.7653C67.8453 42.4349 69.8385 41.2213 72.4288 40.3588C75.4337 39.7119 78.4387 40.063 81.0235 41.777H81.0262Z" fill="#FDCC43"/>
<path d="M81.0262 41.777C82.7512 43.1868 83.6165 44.6161 84.1114 46.7862V47.339C84.3574 47.2478 84.6007 47.1566 84.855 47.0626C86.7182 46.5346 88.8165 46.5014 90.6438 47.1317C91.545 47.7952 92.0619 48.3204 92.2499 49.4456C92.2518 50.8591 92.0278 51.9253 91.5782 52.644C91.3957 52.8099 91.2132 52.9758 91.0253 53.1444C91.6583 53.2826 92.2914 53.4098 92.9272 53.5314C93.5409 53.6503 94.1491 53.7775 94.7573 53.9157C95.9515 54.1755 97.1365 54.205 98.3124 54.0041C98.9012 53.5784 99.3739 53.1195 99.8715 52.5915C100.076 52.4008 100.278 52.21 100.488 52.0137C101.53 51.0213 102.465 49.9985 103.327 48.8429C105.265 46.2968 107.725 44.3755 110.929 43.7453C113.163 43.5434 115.062 43.7757 116.912 45.0971C118.744 46.6341 119.867 48.0053 120.152 50.4104C120.259 53.114 119.665 55.121 117.959 57.222C116.735 58.5268 115.3 59.3008 113.691 60.0555C113.981 60.2021 114.274 60.3513 114.573 60.5034C118.803 62.6762 122.609 65.1477 126.131 68.3489C126.372 68.5673 126.615 68.7857 126.861 69.0096C132.813 74.6712 136.694 82.8623 136.99 91.0866C137.142 98.3405 135.605 104.97 130.831 110.645C130.712 110.805 130.59 110.966 130.466 111.129C126.197 116.619 118.49 119.215 111.869 120.13C105.251 120.857 98.4368 120.393 91.8076 120.006C81.5819 119.408 71.3285 119.801 61.1111 120.415C50.5509 121.037 39.5981 120.135 31.3075 112.857C31.0974 112.671 30.8873 112.489 30.6717 112.298C25.7454 107.695 23.4177 100.934 23.0169 94.3348C22.746 85.964 25.7454 77.408 31.3102 71.1134C31.5093 70.8839 31.7083 70.6545 31.9129 70.4195C32.5321 69.7201 33.1624 69.0317 33.7983 68.3489C33.9807 68.1471 34.1659 67.9453 34.3539 67.738C37.4252 64.4953 41.1904 62.0957 45.1325 60.0555C45.3316 59.9505 45.5306 59.8482 45.7352 59.7404C45.9342 59.6381 46.1305 59.5386 46.3351 59.4335C46.5157 59.3414 46.6972 59.2474 46.8797 59.1516C47.1893 59.017 47.5284 58.9498 47.897 58.9498C47.7809 58.7424 47.6648 58.5351 47.5431 58.3222C47.3911 58.0513 47.239 57.7776 47.0842 57.4984C46.9322 57.2303 46.7829 56.9594 46.6281 56.6829C45.5389 54.5239 45.655 51.8672 46.3931 49.6031C47.3883 47.2202 48.8203 45.8932 51.148 44.8262C53.2987 43.9498 56.0411 43.9388 58.2443 44.6962C60.4891 45.7744 61.6612 47.5326 62.5292 49.8105C63.0379 51.3779 63.3337 52.879 63.3752 54.5266C64.0147 54.4363 64.6597 54.3442 65.3103 54.2502C65.2191 54.0456 65.1278 53.8383 65.0338 53.6282C64.2183 50.5679 64.821 47.4939 66.347 44.7653C67.8453 42.4349 69.8385 41.2213 72.4288 40.3588C75.4337 39.7119 78.4387 40.063 81.0235 41.777H81.0262ZM103.991 51.9363C101.576 54.9275 99.5407 56.5613 97.8839 56.8377C96.8306 56.8737 95.8603 56.7216 94.8402 56.4728C93.5271 56.1742 92.2223 56.0029 90.8815 55.8785C90.6327 55.8563 90.3839 55.8315 90.1268 55.8093C87.3237 55.5716 84.5233 55.5495 81.709 55.5605C80.8299 55.5633 79.9508 55.5605 79.069 55.5578C74.0985 55.555 69.1031 55.7071 64.2487 56.8543C63.2922 57.0312 62.4131 57.0616 61.44 57.0174C60.948 56.5253 61.0917 55.7679 61.0586 55.0989C60.8485 52.1768 60.1518 49.5423 57.9485 47.4966C56.5331 46.565 55.0569 46.6396 53.4204 46.7889C51.6622 47.2064 50.443 47.8975 49.3179 49.3101C48.3338 50.908 48.2398 52.4174 48.4443 54.2529C48.8369 55.5301 49.4838 56.6387 50.1721 57.7776C50.6642 58.6927 50.7029 59.0576 50.6559 60.0583C50.3905 60.1855 50.1251 60.3126 49.8542 60.4453C39.9077 65.2887 31.1637 72.2026 27.2741 82.9259C24.7944 90.1992 24.9022 97.5222 28.0979 104.569C29.0462 106.402 30.2266 107.988 31.5867 109.537C31.771 109.747 31.9571 109.96 32.1451 110.175C36.278 114.601 41.8428 116.398 47.6205 117.553C47.8583 117.603 48.096 117.653 48.3421 117.706C49.6607 117.88 50.9655 117.874 52.2925 117.877C52.5883 117.877 52.8868 117.877 53.1937 117.88C53.8267 117.88 54.457 117.88 55.0901 117.88C56.0245 117.88 56.9616 117.885 57.896 117.891C61.183 117.899 64.4395 117.799 67.7209 117.553C71.9063 117.244 76.0751 117.189 80.2688 117.205C80.8576 117.205 81.4464 117.208 82.0352 117.208C86.4584 117.213 90.876 117.249 95.2908 117.551C95.476 117.565 95.6585 117.576 95.8492 117.589C96.0317 117.603 96.2114 117.614 96.3994 117.628C104.494 118.178 113.069 118.518 120.602 115.065C120.901 114.936 121.202 114.803 121.509 114.667C123.463 113.758 125.081 112.63 126.684 111.195C126.913 110.991 127.146 110.786 127.383 110.576C131.259 106.932 134.162 101.417 134.469 96.0432C134.601 86.3317 132.196 78.265 125.421 71.1161C120.962 66.5631 115.419 63.5166 109.544 61.1586H108.991V59.4999L110.166 58.9138C110.418 58.7867 110.669 58.6595 110.927 58.5296C111.482 58.2559 112.043 57.9905 112.61 57.7362C114.711 56.7686 116.303 55.7153 117.329 53.584C117.84 52.0082 117.832 50.3855 117.113 48.8927C115.599 47.2202 114.374 46.4019 112.137 46.095C108.477 46.2084 106.014 49.2742 103.993 51.9363H103.991Z" fill="#312E2D"/>
<path d="M48.624 75.9678C48.8673 75.9678 49.1106 75.9733 49.3621 75.976C52.7707 76.0645 55.4246 76.9408 57.849 79.4067C60.3177 82.185 61.1581 85.4885 60.995 89.1376C60.6522 92.5407 58.8802 94.9623 56.3507 97.149C53.5752 99.1173 50.385 99.6591 47.0676 99.3136C44.5271 98.7109 42.7772 97.2845 40.9858 95.4433C40.8227 95.2858 40.6624 95.131 40.4938 94.9706C38.332 92.7231 37.7597 90.0361 37.8178 87.0173C37.9588 83.852 38.9899 81.5934 41.0881 79.2215C43.4683 77.1233 45.3979 75.9346 48.6213 75.9733L48.624 75.9678Z" fill="#F2714B"/>
<path d="M118.393 77.8172C120.539 79.697 122.023 82.2265 122.385 85.0711C122.496 88.4686 121.514 91.0175 119.22 93.5055C116.942 95.9133 113.705 97.0716 110.443 97.2043C107.137 97.1324 104.776 95.8304 102.426 93.6022C100.339 91.3962 99.7112 88.4576 99.772 85.5079C99.9323 82.6716 101.348 80.0011 103.427 78.1047C107.64 74.7265 114.048 74.6298 118.391 77.8172H118.393Z" fill="#F2714B"/>
<path d="M78.7732 43.3472C79.0939 43.5573 79.3989 43.7821 79.6882 44.0217C79.843 44.1433 79.9978 44.265 80.1582 44.3894C81.6814 45.8435 81.8611 47.8256 82.1762 49.8271C83.2323 50.109 83.8349 50.0842 84.855 49.7054C86.334 49.2189 88.1862 48.8236 89.6403 49.5506C89.6974 49.9653 89.6974 50.426 89.6403 50.9328C87.2048 53.2273 83.8183 53.302 80.6502 53.3158C79.5915 53.3213 78.5327 53.3434 77.4739 53.3628C77.2638 53.3656 77.0537 53.3711 76.8353 53.3739C73.905 53.4319 70.9912 53.6945 68.0747 53.9737C67.0685 52.1658 67.2122 49.429 67.7015 47.4358C68.5392 45.6196 70.2227 43.9249 72.0445 43.0984C74.0957 42.5842 76.8077 42.4736 78.7677 43.3472H78.7732Z" fill="#06CBD1"/>
<path d="M94.9978 75.5006C95.9819 75.9208 96.2086 76.4432 96.626 77.4053C97.2093 79.1939 96.8223 80.6673 96.087 82.3371C94.8236 84.6343 92.9106 85.483 90.4834 86.199C87.8682 86.7381 85.5959 86.2073 83.2848 84.9329C82.8148 84.5763 82.3532 84.2086 81.9026 83.8271C81.7975 83.9515 81.6925 84.0731 81.5874 84.2031C80.0752 85.8617 77.8388 87.2827 75.5415 87.4679C70.8493 87.5545 67.5338 86.7104 65.595 84.9357C64.0165 83.382 63.3448 81.8671 63.2618 79.6832C63.3033 78.16 63.5189 77.2698 64.4892 76.0894C64.9721 75.894 65.4328 75.8019 65.8715 75.8129C66.0539 75.9954 66.2364 76.1779 66.4244 76.3658C66.3691 76.8164 66.3083 77.2643 66.2309 77.7121C65.9738 79.5007 65.877 81.2119 66.9773 82.7241C69.0976 84.7532 71.2677 85.0545 74.1123 85.0048C76.3294 84.8278 78.2424 83.9985 79.7463 82.326C80.0928 81.8597 80.3922 81.364 80.6447 80.8387C80.9322 80.4351 81.2934 80.1965 81.7284 80.1227C82.7125 80.2748 82.9309 80.648 83.5308 81.4276C84.7085 82.8181 85.5793 83.4622 87.448 83.6281C89.3832 83.6889 91.3321 83.7138 92.8415 82.3288C94.0413 80.9631 94.1601 79.7772 94.0689 78.0245C94.0118 77.6707 93.9547 77.3131 93.8975 76.9519C93.8644 76.6672 93.8284 76.3824 93.7925 76.0894C94.1611 75.7208 94.5647 75.5254 95.0033 75.5033L94.9978 75.5006Z" fill="#2A2421"/>
<path d="M91.2989 74.7072C91.2879 75.1329 91.1957 75.5936 91.0225 76.0894C90.3664 76.423 89.7214 76.6994 89.0874 76.9187C89.3942 76.9077 89.7038 76.8966 90.0218 76.8856C90.6889 76.9077 91.2068 77.103 91.5754 77.4716C91.5754 77.8402 91.4832 78.2088 91.2989 78.5774C89.7895 79.3514 87.9871 79.3045 86.3229 79.4067C86.1128 78.652 85.9857 78.1904 86.2649 77.444C87.4978 75.5476 88.9187 74.1266 91.2989 74.7072Z" fill="#2F2822"/>
<path d="M74.7122 76.0894C75.254 76.469 75.7148 76.9298 76.0944 77.4716C76.0944 78.4447 75.9921 79.0888 75.525 79.943C74.6403 80.4268 73.7585 80.3798 72.7771 80.2361C72.4085 80.0518 72.132 79.7753 71.9477 79.4067C71.8077 78.148 71.957 77.1804 72.3956 76.5041C73.2636 75.9567 73.7004 75.9042 74.7122 76.0894Z" fill="#2B2521"/>
<path d="M106.78 45.4039L107.333 45.6804L103.463 49.5506L102.91 49.2742C103.294 48.8346 103.681 48.3978 104.068 47.961C104.284 47.7178 104.501 47.4717 104.72 47.2229C105.367 46.5429 106.036 45.9706 106.783 45.4039H106.78Z" fill="#747172"/>
<path d="M49.8321 45.4039L50.385 45.6804C49.3815 46.6839 48.378 47.6874 47.3441 48.7213C47.3441 47.7482 47.4961 47.61 48.1209 46.9078C48.2647 46.7419 48.4102 46.5742 48.5577 46.4047C48.8544 46.1061 49.2792 45.7725 49.8321 45.4039Z" fill="#7E7C7D"/>
<path d="M69.1833 41.8101L69.7362 42.0866L67.2482 44.5746L66.6953 44.2981C66.9524 43.9858 67.2122 43.6761 67.4721 43.3638C67.6158 43.1896 67.7596 43.0182 67.9089 42.8385C68.2056 42.5197 68.6304 42.176 69.1833 41.8074V41.8101Z" fill="var(--fill-0, #6A6768)"/>
</g>
</g>
</g>
</svg>
