<svg preserveAspectRatio="none" width="100%" height="100%" overflow="visible" style="display: block;" viewBox="0 0 94 77" fill="none" xmlns="http://www.w3.org/2000/svg">
<g id="Objects" clip-path="url(#clip0_2005_230)">
<path id="Vector" d="M94 31.8186V63.1343C94 66.1339 91.5253 68.5663 88.4713 68.5663H83.6084V75.3151C83.6084 76.719 81.9632 77.5049 80.8393 76.6371L70.3834 68.5663H36.9704C33.9164 68.5663 31.4417 66.1339 31.4417 63.1343V31.8186C31.4417 28.818 33.9164 26.3866 36.9704 26.3866H88.4713C91.5253 26.3866 94 28.818 94 31.8186Z" fill="var(--fill-0, #FFCB59)"/>
<path id="Vector_2" d="M80.7011 26.3866V45.8657C80.7011 51.023 76.4303 55.2201 71.1801 55.2201H31.4417V31.8196C31.4417 28.819 33.9164 26.3876 36.9704 26.3876H80.7011V26.3866Z" fill="var(--fill-0, #EFA400)"/>
<path id="Vector_3" d="M78.0817 6.77991V45.8657C78.0817 49.6098 74.9929 52.6456 71.1811 52.6456H29.4766L16.4257 62.7206C15.0243 63.8031 12.9696 62.8222 12.9696 61.07V52.6456H6.89948C3.08878 52.6456 -0.00114169 49.6108 -0.00114169 45.8657V6.77991C-8.63879e-05 3.03484 3.08878 0 6.90054 0H71.1811C74.9918 0 78.0817 3.03484 78.0817 6.77991Z" fill="var(--fill-0, #42D9AD)"/>
<path id="Vector_4" d="M23.6525 31.1104C26.344 31.1104 28.5259 28.9667 28.5259 26.3223C28.5259 23.6779 26.344 21.5342 23.6525 21.5342C20.961 21.5342 18.7791 23.6779 18.7791 26.3223C18.7791 28.9667 20.961 31.1104 23.6525 31.1104Z" fill="var(--fill-0, white)"/>
<path id="Vector_5" d="M39.0409 31.1104C41.7324 31.1104 43.9143 28.9667 43.9143 26.3223C43.9143 23.6779 41.7324 21.5342 39.0409 21.5342C36.3494 21.5342 34.1675 23.6779 34.1675 26.3223C34.1675 28.9667 36.3494 31.1104 39.0409 31.1104Z" fill="var(--fill-0, white)"/>
<path id="Vector_6" d="M54.4293 31.1104C57.1208 31.1104 59.3027 28.9667 59.3027 26.3223C59.3027 23.6779 57.1208 21.5342 54.4293 21.5342C51.7378 21.5342 49.5559 23.6779 49.5559 26.3223C49.5559 28.9667 51.7378 31.1104 54.4293 31.1104Z" fill="var(--fill-0, white)"/>
</g>
<defs>
<clipPath id="clip0_2005_230">
<rect width="94" height="77" fill="white"/>
</clipPath>
</defs>
</svg>
