<svg preserveAspectRatio="none" width="100%" height="100%" overflow="visible" style="display: block;" viewBox="0 0 2056 1199" fill="none" xmlns="http://www.w3.org/2000/svg">
<path id="Vector" d="M696.614 141.606C706.701 141.606 714.879 149.785 714.879 159.879C714.879 169.973 706.701 178.152 696.614 178.152C688.661 178.152 681.901 173.074 679.389 165.981H0V153.781H679.389C681.901 146.688 688.661 141.61 696.614 141.61M651.879 651.115C658.969 653.628 664.047 660.392 664.047 668.344C664.047 678.434 655.868 686.617 645.777 686.617C635.686 686.617 627.512 678.434 627.512 668.344C627.512 660.392 632.59 653.628 639.679 651.115V521.906H0V509.707H651.879V651.12V651.115ZM515.271 905.348C522.36 907.86 527.438 914.624 527.438 922.576C527.438 932.667 519.259 940.849 509.172 940.849C499.086 940.849 490.903 932.671 490.903 922.576C490.903 914.624 495.981 907.86 503.07 905.348V814.272H0V802.068H515.271V905.348ZM988.895 751.764C998.986 751.764 1007.16 759.942 1007.16 770.037C1007.16 777.989 1002.08 784.753 994.993 787.265V995.413H0V983.209H982.793V787.261C975.704 784.749 970.625 777.985 970.625 770.033C970.625 759.942 978.804 751.76 988.891 751.76L988.895 751.764ZM1112.79 761.299C1122.88 761.299 1131.06 769.478 1131.06 779.572C1131.06 787.524 1125.98 794.288 1118.9 796.8V1199H1106.7V796.8C1099.61 794.288 1094.53 787.524 1094.53 779.572C1094.53 769.482 1102.71 761.299 1112.79 761.299ZM1034.1 447.729C1041.19 450.242 1046.27 457.006 1046.27 464.958C1046.27 475.048 1038.09 483.231 1028 483.231C1017.91 483.231 1009.73 475.052 1009.73 464.958C1009.73 457.006 1014.81 450.242 1021.9 447.729V0H1034.09V447.729H1034.1ZM1204.67 311.082C1211.76 313.59 1216.84 320.358 1216.84 328.306C1216.84 338.397 1208.66 346.579 1198.57 346.579C1188.49 346.579 1180.31 338.401 1180.31 328.306C1180.31 320.354 1185.39 313.59 1192.48 311.082V0H1204.68V311.082H1204.67ZM1449.55 160.673C1457.5 160.673 1464.26 165.751 1466.78 172.844H2056V185.047H1466.78C1464.26 192.14 1457.5 197.218 1449.55 197.218C1439.46 197.218 1431.28 189.04 1431.28 178.945C1431.28 168.851 1439.46 160.673 1449.55 160.673ZM1550.96 562.136C1558.05 564.648 1563.13 571.412 1563.13 579.365C1563.13 589.459 1554.95 597.637 1544.86 597.637C1534.77 597.637 1526.6 589.455 1526.6 579.365C1526.6 571.412 1531.67 564.648 1538.76 562.136V436.611H2056V448.815H1550.96V562.136ZM1277.74 1070.6C1284.83 1073.11 1289.91 1079.88 1289.91 1087.83C1289.91 1097.92 1281.73 1106.1 1271.64 1106.1C1261.56 1106.1 1253.37 1097.92 1253.37 1087.83C1253.37 1079.88 1258.45 1073.11 1265.54 1070.6V862.449H2056V874.653H1277.74V1070.6H1277.74ZM1332.01 281.432C1342.1 281.432 1350.27 289.614 1350.27 299.705C1350.27 307.657 1345.2 314.421 1338.11 316.933V722.62H2056V734.823H1325.91V316.933C1318.82 314.421 1313.74 307.657 1313.74 299.705C1313.74 289.614 1321.92 281.432 1332.01 281.432ZM1576.64 945.619C1586.72 945.619 1594.9 953.797 1594.9 963.892C1594.9 971.844 1589.82 978.608 1582.74 981.116V1065.84H2056V1078.04H1570.54V981.112C1563.45 978.604 1558.37 971.836 1558.37 963.887C1558.37 953.797 1566.55 945.615 1576.64 945.615L1576.64 945.619ZM0 312.673H877.443V581.203C884.532 583.715 889.611 590.479 889.611 598.431C889.611 608.521 881.432 616.704 871.345 616.704C861.258 616.704 853.08 608.525 853.08 598.431C853.08 590.479 858.158 583.715 865.247 581.203V324.877H0V312.673Z" fill="var(--fill-0, #A6F2C6)" fill-opacity="0.3"/>
</svg>
