<svg preserveAspectRatio="none" width="100%" height="100%" overflow="visible" style="display: block;" viewBox="0 0 1924.25 1087.25" fill="none" xmlns="http://www.w3.org/2000/svg">
<g id="Group" opacity="0.25">
<path id="Vector" d="M87.3123 4H4V81.0915H87.3123V4Z" stroke="var(--stroke-0, white)" stroke-width="8" stroke-miterlimit="10"/>
<path id="Vector_2" d="M170.625 4H87.3123V81.0915H170.625V4Z" stroke="var(--stroke-0, white)" stroke-width="8" stroke-miterlimit="10"/>
<path id="Vector_3" d="M253.944 4H170.632V81.0915H253.944V4Z" stroke="var(--stroke-0, white)" stroke-width="8" stroke-miterlimit="10"/>
<path id="Vector_4" d="M337.257 4H253.944V81.0915H337.257V4Z" stroke="var(--stroke-0, white)" stroke-width="8" stroke-miterlimit="10"/>
<path id="Vector_5" d="M420.576 4H337.264V81.0915H420.576V4Z" stroke="var(--stroke-0, white)" stroke-width="8" stroke-miterlimit="10"/>
<path id="Vector_6" d="M503.889 4H420.576V81.0915H503.889V4Z" stroke="var(--stroke-0, white)" stroke-width="8" stroke-miterlimit="10"/>
<path id="Vector_7" d="M587.201 4H503.889V81.0915H587.201V4Z" stroke="var(--stroke-0, white)" stroke-width="8" stroke-miterlimit="10"/>
<path id="Vector_8" d="M670.521 4H587.209V81.0915H670.521V4Z" stroke="var(--stroke-0, white)" stroke-width="8" stroke-miterlimit="10"/>
<path id="Vector_9" d="M753.833 4H670.521V81.0915H753.833V4Z" stroke="var(--stroke-0, white)" stroke-width="8" stroke-miterlimit="10"/>
<path id="Vector_10" d="M837.153 4H753.841V81.0915H837.153V4Z" stroke="var(--stroke-0, white)" stroke-width="8" stroke-miterlimit="10"/>
<path id="Vector_11" d="M920.465 4H837.153V81.0915H920.465V4Z" stroke="var(--stroke-0, white)" stroke-width="8" stroke-miterlimit="10"/>
<path id="Vector_12" d="M1003.78 4H920.465V81.0915H1003.78V4Z" stroke="var(--stroke-0, white)" stroke-width="8" stroke-miterlimit="10"/>
<path id="Vector_13" d="M1087.1 4H1003.79V81.0915H1087.1V4Z" stroke="var(--stroke-0, white)" stroke-width="8" stroke-miterlimit="10"/>
<path id="Vector_14" d="M1170.41 4H1087.1V81.0915H1170.41V4Z" stroke="var(--stroke-0, white)" stroke-width="8" stroke-miterlimit="10"/>
<path id="Vector_15" d="M1253.73 4H1170.42V81.0915H1253.73V4Z" stroke="var(--stroke-0, white)" stroke-width="8" stroke-miterlimit="10"/>
<path id="Vector_16" d="M1337.04 4H1253.73V81.0915H1337.04V4Z" stroke="var(--stroke-0, white)" stroke-width="8" stroke-miterlimit="10"/>
<path id="Vector_17" d="M1420.35 4H1337.04V81.0915H1420.35V4Z" stroke="var(--stroke-0, white)" stroke-width="8" stroke-miterlimit="10"/>
<path id="Vector_18" d="M1503.67 4H1420.36V81.0915H1503.67V4Z" stroke="var(--stroke-0, white)" stroke-width="8" stroke-miterlimit="10"/>
<path id="Vector_19" d="M1586.99 4H1503.67V81.0915H1586.99V4Z" stroke="var(--stroke-0, white)" stroke-width="8" stroke-miterlimit="10"/>
<path id="Vector_20" d="M1670.31 4H1586.99V81.0915H1670.31V4Z" stroke="var(--stroke-0, white)" stroke-width="8" stroke-miterlimit="10"/>
<path id="Vector_21" d="M1753.62 4H1670.31V81.0915H1753.62V4Z" stroke="var(--stroke-0, white)" stroke-width="8" stroke-miterlimit="10"/>
<path id="Vector_22" d="M1836.93 4H1753.62V81.0915H1836.93V4Z" stroke="var(--stroke-0, white)" stroke-width="8" stroke-miterlimit="10"/>
<path id="Vector_23" d="M1920.25 4H1836.94V81.0915H1920.25V4Z" stroke="var(--stroke-0, white)" stroke-width="8" stroke-miterlimit="10"/>
<path id="Vector_24" d="M87.3123 81.0915H4V158.183H87.3123V81.0915Z" stroke="var(--stroke-0, white)" stroke-width="8" stroke-miterlimit="10"/>
<path id="Vector_25" d="M170.625 81.0915H87.3123V158.183H170.625V81.0915Z" stroke="var(--stroke-0, white)" stroke-width="8" stroke-miterlimit="10"/>
<path id="Vector_26" d="M253.944 81.0915H170.632V158.183H253.944V81.0915Z" stroke="var(--stroke-0, white)" stroke-width="8" stroke-miterlimit="10"/>
<path id="Vector_27" d="M337.257 81.0915H253.944V158.183H337.257V81.0915Z" stroke="var(--stroke-0, white)" stroke-width="8" stroke-miterlimit="10"/>
<path id="Vector_28" d="M420.576 81.0915H337.264V158.183H420.576V81.0915Z" stroke="var(--stroke-0, white)" stroke-width="8" stroke-miterlimit="10"/>
<path id="Vector_29" d="M503.889 81.0915H420.576V158.183H503.889V81.0915Z" stroke="var(--stroke-0, white)" stroke-width="8" stroke-miterlimit="10"/>
<path id="Vector_30" d="M587.201 81.0915H503.889V158.183H587.201V81.0915Z" stroke="var(--stroke-0, white)" stroke-width="8" stroke-miterlimit="10"/>
<path id="Vector_31" d="M670.521 81.0915H587.209V158.183H670.521V81.0915Z" stroke="var(--stroke-0, white)" stroke-width="8" stroke-miterlimit="10"/>
<path id="Vector_32" d="M753.833 81.0915H670.521V158.183H753.833V81.0915Z" stroke="var(--stroke-0, white)" stroke-width="8" stroke-miterlimit="10"/>
<path id="Vector_33" d="M837.153 81.0915H753.841V158.183H837.153V81.0915Z" stroke="var(--stroke-0, white)" stroke-width="8" stroke-miterlimit="10"/>
<path id="Vector_34" d="M920.465 81.0915H837.153V158.183H920.465V81.0915Z" stroke="var(--stroke-0, white)" stroke-width="8" stroke-miterlimit="10"/>
<path id="Vector_35" d="M1003.78 81.0915H920.465V158.183H1003.78V81.0915Z" stroke="var(--stroke-0, white)" stroke-width="8" stroke-miterlimit="10"/>
<path id="Vector_36" d="M1087.1 81.0915H1003.79V158.183H1087.1V81.0915Z" stroke="var(--stroke-0, white)" stroke-width="8" stroke-miterlimit="10"/>
<path id="Vector_37" d="M1170.41 81.0915H1087.1V158.183H1170.41V81.0915Z" stroke="var(--stroke-0, white)" stroke-width="8" stroke-miterlimit="10"/>
<path id="Vector_38" d="M1253.73 81.0915H1170.42V158.183H1253.73V81.0915Z" stroke="var(--stroke-0, white)" stroke-width="8" stroke-miterlimit="10"/>
<path id="Vector_39" d="M1337.04 81.0915H1253.73V158.183H1337.04V81.0915Z" stroke="var(--stroke-0, white)" stroke-width="8" stroke-miterlimit="10"/>
<path id="Vector_40" d="M1420.35 81.0915H1337.04V158.183H1420.35V81.0915Z" stroke="var(--stroke-0, white)" stroke-width="8" stroke-miterlimit="10"/>
<path id="Vector_41" d="M1503.67 81.0915H1420.36V158.183H1503.67V81.0915Z" stroke="var(--stroke-0, white)" stroke-width="8" stroke-miterlimit="10"/>
<path id="Vector_42" d="M1586.99 81.0915H1503.67V158.183H1586.99V81.0915Z" stroke="var(--stroke-0, white)" stroke-width="8" stroke-miterlimit="10"/>
<path id="Vector_43" d="M1670.31 81.0915H1586.99V158.183H1670.31V81.0915Z" stroke="var(--stroke-0, white)" stroke-width="8" stroke-miterlimit="10"/>
<path id="Vector_44" d="M1753.62 81.0915H1670.31V158.183H1753.62V81.0915Z" stroke="var(--stroke-0, white)" stroke-width="8" stroke-miterlimit="10"/>
<path id="Vector_45" d="M1836.93 81.0915H1753.62V158.183H1836.93V81.0915Z" stroke="var(--stroke-0, white)" stroke-width="8" stroke-miterlimit="10"/>
<path id="Vector_46" d="M1920.25 81.0915H1836.94V158.183H1920.25V81.0915Z" stroke="var(--stroke-0, white)" stroke-width="8" stroke-miterlimit="10"/>
<path id="Vector_47" d="M87.3123 158.175H4V235.267H87.3123V158.175Z" stroke="var(--stroke-0, white)" stroke-width="8" stroke-miterlimit="10"/>
<path id="Vector_48" d="M170.625 158.175H87.3123V235.267H170.625V158.175Z" stroke="var(--stroke-0, white)" stroke-width="8" stroke-miterlimit="10"/>
<path id="Vector_49" d="M253.944 158.175H170.632V235.267H253.944V158.175Z" stroke="var(--stroke-0, white)" stroke-width="8" stroke-miterlimit="10"/>
<path id="Vector_50" d="M337.257 158.175H253.944V235.267H337.257V158.175Z" stroke="var(--stroke-0, white)" stroke-width="8" stroke-miterlimit="10"/>
<path id="Vector_51" d="M420.576 158.175H337.264V235.267H420.576V158.175Z" stroke="var(--stroke-0, white)" stroke-width="8" stroke-miterlimit="10"/>
<path id="Vector_52" d="M503.889 158.175H420.576V235.267H503.889V158.175Z" stroke="var(--stroke-0, white)" stroke-width="8" stroke-miterlimit="10"/>
<path id="Vector_53" d="M587.201 158.175H503.889V235.267H587.201V158.175Z" stroke="var(--stroke-0, white)" stroke-width="8" stroke-miterlimit="10"/>
<path id="Vector_54" d="M670.521 158.175H587.209V235.267H670.521V158.175Z" stroke="var(--stroke-0, white)" stroke-width="8" stroke-miterlimit="10"/>
<path id="Vector_55" d="M753.833 158.175H670.521V235.267H753.833V158.175Z" stroke="var(--stroke-0, white)" stroke-width="8" stroke-miterlimit="10"/>
<path id="Vector_56" d="M837.153 158.175H753.841V235.267H837.153V158.175Z" stroke="var(--stroke-0, white)" stroke-width="8" stroke-miterlimit="10"/>
<path id="Vector_57" d="M920.465 158.175H837.153V235.267H920.465V158.175Z" stroke="var(--stroke-0, white)" stroke-width="8" stroke-miterlimit="10"/>
<path id="Vector_58" d="M1003.78 158.175H920.465V235.267H1003.78V158.175Z" stroke="var(--stroke-0, white)" stroke-width="8" stroke-miterlimit="10"/>
<path id="Vector_59" d="M1087.1 158.175H1003.79V235.267H1087.1V158.175Z" stroke="var(--stroke-0, white)" stroke-width="8" stroke-miterlimit="10"/>
<path id="Vector_60" d="M1170.41 158.175H1087.1V235.267H1170.41V158.175Z" stroke="var(--stroke-0, white)" stroke-width="8" stroke-miterlimit="10"/>
<path id="Vector_61" d="M1253.73 158.175H1170.42V235.267H1253.73V158.175Z" stroke="var(--stroke-0, white)" stroke-width="8" stroke-miterlimit="10"/>
<path id="Vector_62" d="M1337.04 158.175H1253.73V235.267H1337.04V158.175Z" stroke="var(--stroke-0, white)" stroke-width="8" stroke-miterlimit="10"/>
<path id="Vector_63" d="M1420.35 158.175H1337.04V235.267H1420.35V158.175Z" stroke="var(--stroke-0, white)" stroke-width="8" stroke-miterlimit="10"/>
<path id="Vector_64" d="M1503.67 158.175H1420.36V235.267H1503.67V158.175Z" stroke="var(--stroke-0, white)" stroke-width="8" stroke-miterlimit="10"/>
<path id="Vector_65" d="M1586.99 158.175H1503.67V235.267H1586.99V158.175Z" stroke="var(--stroke-0, white)" stroke-width="8" stroke-miterlimit="10"/>
<path id="Vector_66" d="M1670.31 158.175H1586.99V235.267H1670.31V158.175Z" stroke="var(--stroke-0, white)" stroke-width="8" stroke-miterlimit="10"/>
<path id="Vector_67" d="M1753.62 158.175H1670.31V235.267H1753.62V158.175Z" stroke="var(--stroke-0, white)" stroke-width="8" stroke-miterlimit="10"/>
<path id="Vector_68" d="M1836.93 158.175H1753.62V235.267H1836.93V158.175Z" stroke="var(--stroke-0, white)" stroke-width="8" stroke-miterlimit="10"/>
<path id="Vector_69" d="M1920.25 158.175H1836.94V235.267H1920.25V158.175Z" stroke="var(--stroke-0, white)" stroke-width="8" stroke-miterlimit="10"/>
<path id="Vector_70" d="M87.3123 235.267H4V312.358H87.3123V235.267Z" stroke="var(--stroke-0, white)" stroke-width="8" stroke-miterlimit="10"/>
<path id="Vector_71" d="M170.625 235.267H87.3123V312.358H170.625V235.267Z" stroke="var(--stroke-0, white)" stroke-width="8" stroke-miterlimit="10"/>
<path id="Vector_72" d="M253.944 235.267H170.632V312.358H253.944V235.267Z" stroke="var(--stroke-0, white)" stroke-width="8" stroke-miterlimit="10"/>
<path id="Vector_73" d="M337.257 235.267H253.944V312.358H337.257V235.267Z" stroke="var(--stroke-0, white)" stroke-width="8" stroke-miterlimit="10"/>
<path id="Vector_74" d="M420.576 235.267H337.264V312.358H420.576V235.267Z" stroke="var(--stroke-0, white)" stroke-width="8" stroke-miterlimit="10"/>
<path id="Vector_75" d="M503.889 235.267H420.576V312.358H503.889V235.267Z" stroke="var(--stroke-0, white)" stroke-width="8" stroke-miterlimit="10"/>
<path id="Vector_76" d="M587.201 235.267H503.889V312.358H587.201V235.267Z" stroke="var(--stroke-0, white)" stroke-width="8" stroke-miterlimit="10"/>
<path id="Vector_77" d="M670.521 235.267H587.209V312.358H670.521V235.267Z" stroke="var(--stroke-0, white)" stroke-width="8" stroke-miterlimit="10"/>
<path id="Vector_78" d="M753.833 235.267H670.521V312.358H753.833V235.267Z" stroke="var(--stroke-0, white)" stroke-width="8" stroke-miterlimit="10"/>
<path id="Vector_79" d="M837.153 235.267H753.841V312.358H837.153V235.267Z" stroke="var(--stroke-0, white)" stroke-width="8" stroke-miterlimit="10"/>
<path id="Vector_80" d="M920.465 235.267H837.153V312.358H920.465V235.267Z" stroke="var(--stroke-0, white)" stroke-width="8" stroke-miterlimit="10"/>
<path id="Vector_81" d="M1003.78 235.267H920.465V312.358H1003.78V235.267Z" stroke="var(--stroke-0, white)" stroke-width="8" stroke-miterlimit="10"/>
<path id="Vector_82" d="M1087.1 235.267H1003.79V312.358H1087.1V235.267Z" stroke="var(--stroke-0, white)" stroke-width="8" stroke-miterlimit="10"/>
<path id="Vector_83" d="M1170.41 235.267H1087.1V312.358H1170.41V235.267Z" stroke="var(--stroke-0, white)" stroke-width="8" stroke-miterlimit="10"/>
<path id="Vector_84" d="M1253.73 235.267H1170.42V312.358H1253.73V235.267Z" stroke="var(--stroke-0, white)" stroke-width="8" stroke-miterlimit="10"/>
<path id="Vector_85" d="M1337.04 235.267H1253.73V312.358H1337.04V235.267Z" stroke="var(--stroke-0, white)" stroke-width="8" stroke-miterlimit="10"/>
<path id="Vector_86" d="M1420.35 235.267H1337.04V312.358H1420.35V235.267Z" stroke="var(--stroke-0, white)" stroke-width="8" stroke-miterlimit="10"/>
<path id="Vector_87" d="M1503.67 235.267H1420.36V312.358H1503.67V235.267Z" stroke="var(--stroke-0, white)" stroke-width="8" stroke-miterlimit="10"/>
<path id="Vector_88" d="M1586.99 235.267H1503.67V312.358H1586.99V235.267Z" stroke="var(--stroke-0, white)" stroke-width="8" stroke-miterlimit="10"/>
<path id="Vector_89" d="M1670.31 235.267H1586.99V312.358H1670.31V235.267Z" stroke="var(--stroke-0, white)" stroke-width="8" stroke-miterlimit="10"/>
<path id="Vector_90" d="M1753.62 235.267H1670.31V312.358H1753.62V235.267Z" stroke="var(--stroke-0, white)" stroke-width="8" stroke-miterlimit="10"/>
<path id="Vector_91" d="M1836.93 235.267H1753.62V312.358H1836.93V235.267Z" stroke="var(--stroke-0, white)" stroke-width="8" stroke-miterlimit="10"/>
<path id="Vector_92" d="M1920.25 235.267H1836.94V312.358H1920.25V235.267Z" stroke="var(--stroke-0, white)" stroke-width="8" stroke-miterlimit="10"/>
<path id="Vector_93" d="M87.3123 312.358H4V389.45H87.3123V312.358Z" stroke="var(--stroke-0, white)" stroke-width="8" stroke-miterlimit="10"/>
<path id="Vector_94" d="M170.625 312.358H87.3123V389.45H170.625V312.358Z" stroke="var(--stroke-0, white)" stroke-width="8" stroke-miterlimit="10"/>
<path id="Vector_95" d="M253.944 312.358H170.632V389.45H253.944V312.358Z" stroke="var(--stroke-0, white)" stroke-width="8" stroke-miterlimit="10"/>
<path id="Vector_96" d="M337.257 312.358H253.944V389.45H337.257V312.358Z" stroke="var(--stroke-0, white)" stroke-width="8" stroke-miterlimit="10"/>
<path id="Vector_97" d="M420.576 312.358H337.264V389.45H420.576V312.358Z" stroke="var(--stroke-0, white)" stroke-width="8" stroke-miterlimit="10"/>
<path id="Vector_98" d="M503.889 312.358H420.576V389.45H503.889V312.358Z" stroke="var(--stroke-0, white)" stroke-width="8" stroke-miterlimit="10"/>
<path id="Vector_99" d="M587.201 312.358H503.889V389.45H587.201V312.358Z" stroke="var(--stroke-0, white)" stroke-width="8" stroke-miterlimit="10"/>
<path id="Vector_100" d="M670.521 312.358H587.209V389.45H670.521V312.358Z" stroke="var(--stroke-0, white)" stroke-width="8" stroke-miterlimit="10"/>
<path id="Vector_101" d="M753.833 312.358H670.521V389.45H753.833V312.358Z" stroke="var(--stroke-0, white)" stroke-width="8" stroke-miterlimit="10"/>
<path id="Vector_102" d="M837.153 312.358H753.841V389.45H837.153V312.358Z" stroke="var(--stroke-0, white)" stroke-width="8" stroke-miterlimit="10"/>
<path id="Vector_103" d="M920.465 312.358H837.153V389.45H920.465V312.358Z" stroke="var(--stroke-0, white)" stroke-width="8" stroke-miterlimit="10"/>
<path id="Vector_104" d="M1003.78 312.358H920.465V389.45H1003.78V312.358Z" stroke="var(--stroke-0, white)" stroke-width="8" stroke-miterlimit="10"/>
<path id="Vector_105" d="M1087.1 312.358H1003.79V389.45H1087.1V312.358Z" stroke="var(--stroke-0, white)" stroke-width="8" stroke-miterlimit="10"/>
<path id="Vector_106" d="M1170.41 312.358H1087.1V389.45H1170.41V312.358Z" stroke="var(--stroke-0, white)" stroke-width="8" stroke-miterlimit="10"/>
<path id="Vector_107" d="M1253.73 312.358H1170.42V389.45H1253.73V312.358Z" stroke="var(--stroke-0, white)" stroke-width="8" stroke-miterlimit="10"/>
<path id="Vector_108" d="M1337.04 312.358H1253.73V389.45H1337.04V312.358Z" stroke="var(--stroke-0, white)" stroke-width="8" stroke-miterlimit="10"/>
<path id="Vector_109" d="M1420.35 312.358H1337.04V389.45H1420.35V312.358Z" stroke="var(--stroke-0, white)" stroke-width="8" stroke-miterlimit="10"/>
<path id="Vector_110" d="M1503.67 312.358H1420.36V389.45H1503.67V312.358Z" stroke="var(--stroke-0, white)" stroke-width="8" stroke-miterlimit="10"/>
<path id="Vector_111" d="M1586.99 312.358H1503.67V389.45H1586.99V312.358Z" stroke="var(--stroke-0, white)" stroke-width="8" stroke-miterlimit="10"/>
<path id="Vector_112" d="M1670.31 312.358H1586.99V389.45H1670.31V312.358Z" stroke="var(--stroke-0, white)" stroke-width="8" stroke-miterlimit="10"/>
<path id="Vector_113" d="M1753.62 312.358H1670.31V389.45H1753.62V312.358Z" stroke="var(--stroke-0, white)" stroke-width="8" stroke-miterlimit="10"/>
<path id="Vector_114" d="M1836.93 312.358H1753.62V389.45H1836.93V312.358Z" stroke="var(--stroke-0, white)" stroke-width="8" stroke-miterlimit="10"/>
<path id="Vector_115" d="M1920.25 312.358H1836.94V389.45H1920.25V312.358Z" stroke="var(--stroke-0, white)" stroke-width="8" stroke-miterlimit="10"/>
<path id="Vector_116" d="M87.3123 389.45H4V466.541H87.3123V389.45Z" stroke="var(--stroke-0, white)" stroke-width="8" stroke-miterlimit="10"/>
<path id="Vector_117" d="M170.625 389.45H87.3123V466.541H170.625V389.45Z" stroke="var(--stroke-0, white)" stroke-width="8" stroke-miterlimit="10"/>
<path id="Vector_118" d="M253.944 389.45H170.632V466.541H253.944V389.45Z" stroke="var(--stroke-0, white)" stroke-width="8" stroke-miterlimit="10"/>
<path id="Vector_119" d="M337.257 389.45H253.944V466.541H337.257V389.45Z" stroke="var(--stroke-0, white)" stroke-width="8" stroke-miterlimit="10"/>
<path id="Vector_120" d="M420.576 389.45H337.264V466.541H420.576V389.45Z" stroke="var(--stroke-0, white)" stroke-width="8" stroke-miterlimit="10"/>
<path id="Vector_121" d="M503.889 389.45H420.576V466.541H503.889V389.45Z" stroke="var(--stroke-0, white)" stroke-width="8" stroke-miterlimit="10"/>
<path id="Vector_122" d="M587.201 389.45H503.889V466.541H587.201V389.45Z" stroke="var(--stroke-0, white)" stroke-width="8" stroke-miterlimit="10"/>
<path id="Vector_123" d="M670.521 389.45H587.209V466.541H670.521V389.45Z" stroke="var(--stroke-0, white)" stroke-width="8" stroke-miterlimit="10"/>
<path id="Vector_124" d="M753.833 389.45H670.521V466.541H753.833V389.45Z" stroke="var(--stroke-0, white)" stroke-width="8" stroke-miterlimit="10"/>
<path id="Vector_125" d="M837.153 389.45H753.841V466.541H837.153V389.45Z" stroke="var(--stroke-0, white)" stroke-width="8" stroke-miterlimit="10"/>
<path id="Vector_126" d="M920.465 389.45H837.153V466.541H920.465V389.45Z" stroke="var(--stroke-0, white)" stroke-width="8" stroke-miterlimit="10"/>
<path id="Vector_127" d="M1003.78 389.45H920.465V466.541H1003.78V389.45Z" stroke="var(--stroke-0, white)" stroke-width="8" stroke-miterlimit="10"/>
<path id="Vector_128" d="M1087.1 389.45H1003.79V466.541H1087.1V389.45Z" stroke="var(--stroke-0, white)" stroke-width="8" stroke-miterlimit="10"/>
<path id="Vector_129" d="M1170.41 389.45H1087.1V466.541H1170.41V389.45Z" stroke="var(--stroke-0, white)" stroke-width="8" stroke-miterlimit="10"/>
<path id="Vector_130" d="M1253.73 389.45H1170.42V466.541H1253.73V389.45Z" stroke="var(--stroke-0, white)" stroke-width="8" stroke-miterlimit="10"/>
<path id="Vector_131" d="M1337.04 389.45H1253.73V466.541H1337.04V389.45Z" stroke="var(--stroke-0, white)" stroke-width="8" stroke-miterlimit="10"/>
<path id="Vector_132" d="M1420.35 389.45H1337.04V466.541H1420.35V389.45Z" stroke="var(--stroke-0, white)" stroke-width="8" stroke-miterlimit="10"/>
<path id="Vector_133" d="M1503.67 389.45H1420.36V466.541H1503.67V389.45Z" stroke="var(--stroke-0, white)" stroke-width="8" stroke-miterlimit="10"/>
<path id="Vector_134" d="M1586.99 389.45H1503.67V466.541H1586.99V389.45Z" stroke="var(--stroke-0, white)" stroke-width="8" stroke-miterlimit="10"/>
<path id="Vector_135" d="M1670.31 389.45H1586.99V466.541H1670.31V389.45Z" stroke="var(--stroke-0, white)" stroke-width="8" stroke-miterlimit="10"/>
<path id="Vector_136" d="M1753.62 389.45H1670.31V466.541H1753.62V389.45Z" stroke="var(--stroke-0, white)" stroke-width="8" stroke-miterlimit="10"/>
<path id="Vector_137" d="M1836.93 389.45H1753.62V466.541H1836.93V389.45Z" stroke="var(--stroke-0, white)" stroke-width="8" stroke-miterlimit="10"/>
<path id="Vector_138" d="M1920.25 389.45H1836.94V466.541H1920.25V389.45Z" stroke="var(--stroke-0, white)" stroke-width="8" stroke-miterlimit="10"/>
<path id="Vector_139" d="M87.3123 466.534H4V543.625H87.3123V466.534Z" stroke="var(--stroke-0, white)" stroke-width="8" stroke-miterlimit="10"/>
<path id="Vector_140" d="M170.625 466.534H87.3123V543.625H170.625V466.534Z" stroke="var(--stroke-0, white)" stroke-width="8" stroke-miterlimit="10"/>
<path id="Vector_141" d="M253.944 466.534H170.632V543.625H253.944V466.534Z" stroke="var(--stroke-0, white)" stroke-width="8" stroke-miterlimit="10"/>
<path id="Vector_142" d="M337.257 466.534H253.944V543.625H337.257V466.534Z" stroke="var(--stroke-0, white)" stroke-width="8" stroke-miterlimit="10"/>
<path id="Vector_143" d="M420.576 466.534H337.264V543.625H420.576V466.534Z" stroke="var(--stroke-0, white)" stroke-width="8" stroke-miterlimit="10"/>
<path id="Vector_144" d="M503.889 466.534H420.576V543.625H503.889V466.534Z" stroke="var(--stroke-0, white)" stroke-width="8" stroke-miterlimit="10"/>
<path id="Vector_145" d="M587.201 466.534H503.889V543.625H587.201V466.534Z" stroke="var(--stroke-0, white)" stroke-width="8" stroke-miterlimit="10"/>
<path id="Vector_146" d="M670.521 466.534H587.209V543.625H670.521V466.534Z" stroke="var(--stroke-0, white)" stroke-width="8" stroke-miterlimit="10"/>
<path id="Vector_147" d="M753.833 466.534H670.521V543.625H753.833V466.534Z" stroke="var(--stroke-0, white)" stroke-width="8" stroke-miterlimit="10"/>
<path id="Vector_148" d="M837.153 466.534H753.841V543.625H837.153V466.534Z" stroke="var(--stroke-0, white)" stroke-width="8" stroke-miterlimit="10"/>
<path id="Vector_149" d="M920.465 466.534H837.153V543.625H920.465V466.534Z" stroke="var(--stroke-0, white)" stroke-width="8" stroke-miterlimit="10"/>
<path id="Vector_150" d="M1003.78 466.534H920.465V543.625H1003.78V466.534Z" stroke="var(--stroke-0, white)" stroke-width="8" stroke-miterlimit="10"/>
<path id="Vector_151" d="M1087.1 466.534H1003.79V543.625H1087.1V466.534Z" stroke="var(--stroke-0, white)" stroke-width="8" stroke-miterlimit="10"/>
<path id="Vector_152" d="M1170.41 466.534H1087.1V543.625H1170.41V466.534Z" stroke="var(--stroke-0, white)" stroke-width="8" stroke-miterlimit="10"/>
<path id="Vector_153" d="M1253.73 466.534H1170.42V543.625H1253.73V466.534Z" stroke="var(--stroke-0, white)" stroke-width="8" stroke-miterlimit="10"/>
<path id="Vector_154" d="M1337.04 466.534H1253.73V543.625H1337.04V466.534Z" stroke="var(--stroke-0, white)" stroke-width="8" stroke-miterlimit="10"/>
<path id="Vector_155" d="M1420.35 466.534H1337.04V543.625H1420.35V466.534Z" stroke="var(--stroke-0, white)" stroke-width="8" stroke-miterlimit="10"/>
<path id="Vector_156" d="M1503.67 466.534H1420.36V543.625H1503.67V466.534Z" stroke="var(--stroke-0, white)" stroke-width="8" stroke-miterlimit="10"/>
<path id="Vector_157" d="M1586.99 466.534H1503.67V543.625H1586.99V466.534Z" stroke="var(--stroke-0, white)" stroke-width="8" stroke-miterlimit="10"/>
<path id="Vector_158" d="M1670.31 466.534H1586.99V543.625H1670.31V466.534Z" stroke="var(--stroke-0, white)" stroke-width="8" stroke-miterlimit="10"/>
<path id="Vector_159" d="M1753.62 466.534H1670.31V543.625H1753.62V466.534Z" stroke="var(--stroke-0, white)" stroke-width="8" stroke-miterlimit="10"/>
<path id="Vector_160" d="M1836.93 466.534H1753.62V543.625H1836.93V466.534Z" stroke="var(--stroke-0, white)" stroke-width="8" stroke-miterlimit="10"/>
<path id="Vector_161" d="M1920.25 466.534H1836.94V543.625H1920.25V466.534Z" stroke="var(--stroke-0, white)" stroke-width="8" stroke-miterlimit="10"/>
<path id="Vector_162" d="M87.3123 543.625H4V620.717H87.3123V543.625Z" stroke="var(--stroke-0, white)" stroke-width="8" stroke-miterlimit="10"/>
<path id="Vector_163" d="M170.625 543.625H87.3123V620.717H170.625V543.625Z" stroke="var(--stroke-0, white)" stroke-width="8" stroke-miterlimit="10"/>
<path id="Vector_164" d="M253.944 543.625H170.632V620.717H253.944V543.625Z" stroke="var(--stroke-0, white)" stroke-width="8" stroke-miterlimit="10"/>
<path id="Vector_165" d="M337.257 543.625H253.944V620.717H337.257V543.625Z" stroke="var(--stroke-0, white)" stroke-width="8" stroke-miterlimit="10"/>
<path id="Vector_166" d="M420.576 543.625H337.264V620.717H420.576V543.625Z" stroke="var(--stroke-0, white)" stroke-width="8" stroke-miterlimit="10"/>
<path id="Vector_167" d="M503.889 543.625H420.576V620.717H503.889V543.625Z" stroke="var(--stroke-0, white)" stroke-width="8" stroke-miterlimit="10"/>
<path id="Vector_168" d="M587.201 543.625H503.889V620.717H587.201V543.625Z" stroke="var(--stroke-0, white)" stroke-width="8" stroke-miterlimit="10"/>
<path id="Vector_169" d="M670.521 543.625H587.209V620.717H670.521V543.625Z" stroke="var(--stroke-0, white)" stroke-width="8" stroke-miterlimit="10"/>
<path id="Vector_170" d="M753.833 543.625H670.521V620.717H753.833V543.625Z" stroke="var(--stroke-0, white)" stroke-width="8" stroke-miterlimit="10"/>
<path id="Vector_171" d="M837.153 543.625H753.841V620.717H837.153V543.625Z" stroke="var(--stroke-0, white)" stroke-width="8" stroke-miterlimit="10"/>
<path id="Vector_172" d="M920.465 543.625H837.153V620.717H920.465V543.625Z" stroke="var(--stroke-0, white)" stroke-width="8" stroke-miterlimit="10"/>
<path id="Vector_173" d="M1003.78 543.625H920.465V620.717H1003.78V543.625Z" stroke="var(--stroke-0, white)" stroke-width="8" stroke-miterlimit="10"/>
<path id="Vector_174" d="M1087.1 543.625H1003.79V620.717H1087.1V543.625Z" stroke="var(--stroke-0, white)" stroke-width="8" stroke-miterlimit="10"/>
<path id="Vector_175" d="M1170.41 543.625H1087.1V620.717H1170.41V543.625Z" stroke="var(--stroke-0, white)" stroke-width="8" stroke-miterlimit="10"/>
<path id="Vector_176" d="M1253.73 543.625H1170.42V620.717H1253.73V543.625Z" stroke="var(--stroke-0, white)" stroke-width="8" stroke-miterlimit="10"/>
<path id="Vector_177" d="M1337.04 543.625H1253.73V620.717H1337.04V543.625Z" stroke="var(--stroke-0, white)" stroke-width="8" stroke-miterlimit="10"/>
<path id="Vector_178" d="M1420.35 543.625H1337.04V620.717H1420.35V543.625Z" stroke="var(--stroke-0, white)" stroke-width="8" stroke-miterlimit="10"/>
<path id="Vector_179" d="M1503.67 543.625H1420.36V620.717H1503.67V543.625Z" stroke="var(--stroke-0, white)" stroke-width="8" stroke-miterlimit="10"/>
<path id="Vector_180" d="M1586.99 543.625H1503.67V620.717H1586.99V543.625Z" stroke="var(--stroke-0, white)" stroke-width="8" stroke-miterlimit="10"/>
<path id="Vector_181" d="M1670.31 543.625H1586.99V620.717H1670.31V543.625Z" stroke="var(--stroke-0, white)" stroke-width="8" stroke-miterlimit="10"/>
<path id="Vector_182" d="M1753.62 543.625H1670.31V620.717H1753.62V543.625Z" stroke="var(--stroke-0, white)" stroke-width="8" stroke-miterlimit="10"/>
<path id="Vector_183" d="M1836.93 543.625H1753.62V620.717H1836.93V543.625Z" stroke="var(--stroke-0, white)" stroke-width="8" stroke-miterlimit="10"/>
<path id="Vector_184" d="M1920.25 543.625H1836.94V620.717H1920.25V543.625Z" stroke="var(--stroke-0, white)" stroke-width="8" stroke-miterlimit="10"/>
<path id="Vector_185" d="M87.3123 620.717H4V697.808H87.3123V620.717Z" stroke="var(--stroke-0, white)" stroke-width="8" stroke-miterlimit="10"/>
<path id="Vector_186" d="M170.625 620.717H87.3123V697.808H170.625V620.717Z" stroke="var(--stroke-0, white)" stroke-width="8" stroke-miterlimit="10"/>
<path id="Vector_187" d="M253.944 620.717H170.632V697.808H253.944V620.717Z" stroke="var(--stroke-0, white)" stroke-width="8" stroke-miterlimit="10"/>
<path id="Vector_188" d="M337.257 620.717H253.944V697.808H337.257V620.717Z" stroke="var(--stroke-0, white)" stroke-width="8" stroke-miterlimit="10"/>
<path id="Vector_189" d="M420.576 620.717H337.264V697.808H420.576V620.717Z" stroke="var(--stroke-0, white)" stroke-width="8" stroke-miterlimit="10"/>
<path id="Vector_190" d="M503.889 620.717H420.576V697.808H503.889V620.717Z" stroke="var(--stroke-0, white)" stroke-width="8" stroke-miterlimit="10"/>
<path id="Vector_191" d="M587.201 620.717H503.889V697.808H587.201V620.717Z" stroke="var(--stroke-0, white)" stroke-width="8" stroke-miterlimit="10"/>
<path id="Vector_192" d="M670.521 620.717H587.209V697.808H670.521V620.717Z" stroke="var(--stroke-0, white)" stroke-width="8" stroke-miterlimit="10"/>
<path id="Vector_193" d="M753.833 620.717H670.521V697.808H753.833V620.717Z" stroke="var(--stroke-0, white)" stroke-width="8" stroke-miterlimit="10"/>
<path id="Vector_194" d="M837.153 620.717H753.841V697.808H837.153V620.717Z" stroke="var(--stroke-0, white)" stroke-width="8" stroke-miterlimit="10"/>
<path id="Vector_195" d="M920.465 620.717H837.153V697.808H920.465V620.717Z" stroke="var(--stroke-0, white)" stroke-width="8" stroke-miterlimit="10"/>
<path id="Vector_196" d="M1003.78 620.717H920.465V697.808H1003.78V620.717Z" stroke="var(--stroke-0, white)" stroke-width="8" stroke-miterlimit="10"/>
<path id="Vector_197" d="M1087.1 620.717H1003.79V697.808H1087.1V620.717Z" stroke="var(--stroke-0, white)" stroke-width="8" stroke-miterlimit="10"/>
<path id="Vector_198" d="M1170.41 620.717H1087.1V697.808H1170.41V620.717Z" stroke="var(--stroke-0, white)" stroke-width="8" stroke-miterlimit="10"/>
<path id="Vector_199" d="M1253.73 620.717H1170.42V697.808H1253.73V620.717Z" stroke="var(--stroke-0, white)" stroke-width="8" stroke-miterlimit="10"/>
<path id="Vector_200" d="M1337.04 620.717H1253.73V697.808H1337.04V620.717Z" stroke="var(--stroke-0, white)" stroke-width="8" stroke-miterlimit="10"/>
<path id="Vector_201" d="M1420.35 620.717H1337.04V697.808H1420.35V620.717Z" stroke="var(--stroke-0, white)" stroke-width="8" stroke-miterlimit="10"/>
<path id="Vector_202" d="M1503.67 620.717H1420.36V697.808H1503.67V620.717Z" stroke="var(--stroke-0, white)" stroke-width="8" stroke-miterlimit="10"/>
<path id="Vector_203" d="M1586.99 620.717H1503.67V697.808H1586.99V620.717Z" stroke="var(--stroke-0, white)" stroke-width="8" stroke-miterlimit="10"/>
<path id="Vector_204" d="M1670.31 620.717H1586.99V697.808H1670.31V620.717Z" stroke="var(--stroke-0, white)" stroke-width="8" stroke-miterlimit="10"/>
<path id="Vector_205" d="M1753.62 620.717H1670.31V697.808H1753.62V620.717Z" stroke="var(--stroke-0, white)" stroke-width="8" stroke-miterlimit="10"/>
<path id="Vector_206" d="M1836.93 620.717H1753.62V697.808H1836.93V620.717Z" stroke="var(--stroke-0, white)" stroke-width="8" stroke-miterlimit="10"/>
<path id="Vector_207" d="M1920.25 620.717H1836.94V697.808H1920.25V620.717Z" stroke="var(--stroke-0, white)" stroke-width="8" stroke-miterlimit="10"/>
<path id="Vector_208" d="M87.3123 697.801H4V774.892H87.3123V697.801Z" stroke="var(--stroke-0, white)" stroke-width="8" stroke-miterlimit="10"/>
<path id="Vector_209" d="M170.625 697.801H87.3123V774.892H170.625V697.801Z" stroke="var(--stroke-0, white)" stroke-width="8" stroke-miterlimit="10"/>
<path id="Vector_210" d="M253.944 697.801H170.632V774.892H253.944V697.801Z" stroke="var(--stroke-0, white)" stroke-width="8" stroke-miterlimit="10"/>
<path id="Vector_211" d="M337.257 697.801H253.944V774.892H337.257V697.801Z" stroke="var(--stroke-0, white)" stroke-width="8" stroke-miterlimit="10"/>
<path id="Vector_212" d="M420.576 697.801H337.264V774.892H420.576V697.801Z" stroke="var(--stroke-0, white)" stroke-width="8" stroke-miterlimit="10"/>
<path id="Vector_213" d="M503.889 697.801H420.576V774.892H503.889V697.801Z" stroke="var(--stroke-0, white)" stroke-width="8" stroke-miterlimit="10"/>
<path id="Vector_214" d="M587.201 697.801H503.889V774.892H587.201V697.801Z" stroke="var(--stroke-0, white)" stroke-width="8" stroke-miterlimit="10"/>
<path id="Vector_215" d="M670.521 697.801H587.209V774.892H670.521V697.801Z" stroke="var(--stroke-0, white)" stroke-width="8" stroke-miterlimit="10"/>
<path id="Vector_216" d="M753.833 697.801H670.521V774.892H753.833V697.801Z" stroke="var(--stroke-0, white)" stroke-width="8" stroke-miterlimit="10"/>
<path id="Vector_217" d="M837.153 697.801H753.841V774.892H837.153V697.801Z" stroke="var(--stroke-0, white)" stroke-width="8" stroke-miterlimit="10"/>
<path id="Vector_218" d="M920.465 697.801H837.153V774.892H920.465V697.801Z" stroke="var(--stroke-0, white)" stroke-width="8" stroke-miterlimit="10"/>
<path id="Vector_219" d="M1003.78 697.801H920.465V774.892H1003.78V697.801Z" stroke="var(--stroke-0, white)" stroke-width="8" stroke-miterlimit="10"/>
<path id="Vector_220" d="M1087.1 697.801H1003.79V774.892H1087.1V697.801Z" stroke="var(--stroke-0, white)" stroke-width="8" stroke-miterlimit="10"/>
<path id="Vector_221" d="M1170.41 697.801H1087.1V774.892H1170.41V697.801Z" stroke="var(--stroke-0, white)" stroke-width="8" stroke-miterlimit="10"/>
<path id="Vector_222" d="M1253.73 697.801H1170.42V774.892H1253.73V697.801Z" stroke="var(--stroke-0, white)" stroke-width="8" stroke-miterlimit="10"/>
<path id="Vector_223" d="M1337.04 697.801H1253.73V774.892H1337.04V697.801Z" stroke="var(--stroke-0, white)" stroke-width="8" stroke-miterlimit="10"/>
<path id="Vector_224" d="M1420.35 697.801H1337.04V774.892H1420.35V697.801Z" stroke="var(--stroke-0, white)" stroke-width="8" stroke-miterlimit="10"/>
<path id="Vector_225" d="M1503.67 697.801H1420.36V774.892H1503.67V697.801Z" stroke="var(--stroke-0, white)" stroke-width="8" stroke-miterlimit="10"/>
<path id="Vector_226" d="M1586.99 697.801H1503.67V774.892H1586.99V697.801Z" stroke="var(--stroke-0, white)" stroke-width="8" stroke-miterlimit="10"/>
<path id="Vector_227" d="M1670.31 697.801H1586.99V774.892H1670.31V697.801Z" stroke="var(--stroke-0, white)" stroke-width="8" stroke-miterlimit="10"/>
<path id="Vector_228" d="M1753.62 697.801H1670.31V774.892H1753.62V697.801Z" stroke="var(--stroke-0, white)" stroke-width="8" stroke-miterlimit="10"/>
<path id="Vector_229" d="M1836.93 697.801H1753.62V774.892H1836.93V697.801Z" stroke="var(--stroke-0, white)" stroke-width="8" stroke-miterlimit="10"/>
<path id="Vector_230" d="M1920.25 697.801H1836.94V774.892H1920.25V697.801Z" stroke="var(--stroke-0, white)" stroke-width="8" stroke-miterlimit="10"/>
<path id="Vector_231" d="M87.3123 774.892H4V851.984H87.3123V774.892Z" stroke="var(--stroke-0, white)" stroke-width="8" stroke-miterlimit="10"/>
<path id="Vector_232" d="M170.625 774.892H87.3123V851.984H170.625V774.892Z" stroke="var(--stroke-0, white)" stroke-width="8" stroke-miterlimit="10"/>
<path id="Vector_233" d="M253.944 774.892H170.632V851.984H253.944V774.892Z" stroke="var(--stroke-0, white)" stroke-width="8" stroke-miterlimit="10"/>
<path id="Vector_234" d="M337.257 774.892H253.944V851.984H337.257V774.892Z" stroke="var(--stroke-0, white)" stroke-width="8" stroke-miterlimit="10"/>
<path id="Vector_235" d="M420.576 774.892H337.264V851.984H420.576V774.892Z" stroke="var(--stroke-0, white)" stroke-width="8" stroke-miterlimit="10"/>
<path id="Vector_236" d="M503.889 774.892H420.576V851.984H503.889V774.892Z" stroke="var(--stroke-0, white)" stroke-width="8" stroke-miterlimit="10"/>
<path id="Vector_237" d="M587.201 774.892H503.889V851.984H587.201V774.892Z" stroke="var(--stroke-0, white)" stroke-width="8" stroke-miterlimit="10"/>
<path id="Vector_238" d="M670.521 774.892H587.209V851.984H670.521V774.892Z" stroke="var(--stroke-0, white)" stroke-width="8" stroke-miterlimit="10"/>
<path id="Vector_239" d="M753.833 774.892H670.521V851.984H753.833V774.892Z" stroke="var(--stroke-0, white)" stroke-width="8" stroke-miterlimit="10"/>
<path id="Vector_240" d="M837.153 774.892H753.841V851.984H837.153V774.892Z" stroke="var(--stroke-0, white)" stroke-width="8" stroke-miterlimit="10"/>
<path id="Vector_241" d="M920.465 774.892H837.153V851.984H920.465V774.892Z" stroke="var(--stroke-0, white)" stroke-width="8" stroke-miterlimit="10"/>
<path id="Vector_242" d="M1003.78 774.892H920.465V851.984H1003.78V774.892Z" stroke="var(--stroke-0, white)" stroke-width="8" stroke-miterlimit="10"/>
<path id="Vector_243" d="M1087.1 774.892H1003.79V851.984H1087.1V774.892Z" stroke="var(--stroke-0, white)" stroke-width="8" stroke-miterlimit="10"/>
<path id="Vector_244" d="M1170.41 774.892H1087.1V851.984H1170.41V774.892Z" stroke="var(--stroke-0, white)" stroke-width="8" stroke-miterlimit="10"/>
<path id="Vector_245" d="M1253.73 774.892H1170.42V851.984H1253.73V774.892Z" stroke="var(--stroke-0, white)" stroke-width="8" stroke-miterlimit="10"/>
<path id="Vector_246" d="M1337.04 774.892H1253.73V851.984H1337.04V774.892Z" stroke="var(--stroke-0, white)" stroke-width="8" stroke-miterlimit="10"/>
<path id="Vector_247" d="M1420.35 774.892H1337.04V851.984H1420.35V774.892Z" stroke="var(--stroke-0, white)" stroke-width="8" stroke-miterlimit="10"/>
<path id="Vector_248" d="M1503.67 774.892H1420.36V851.984H1503.67V774.892Z" stroke="var(--stroke-0, white)" stroke-width="8" stroke-miterlimit="10"/>
<path id="Vector_249" d="M1586.99 774.892H1503.67V851.984H1586.99V774.892Z" stroke="var(--stroke-0, white)" stroke-width="8" stroke-miterlimit="10"/>
<path id="Vector_250" d="M1670.31 774.892H1586.99V851.984H1670.31V774.892Z" stroke="var(--stroke-0, white)" stroke-width="8" stroke-miterlimit="10"/>
<path id="Vector_251" d="M1753.62 774.892H1670.31V851.984H1753.62V774.892Z" stroke="var(--stroke-0, white)" stroke-width="8" stroke-miterlimit="10"/>
<path id="Vector_252" d="M1836.93 774.892H1753.62V851.984H1836.93V774.892Z" stroke="var(--stroke-0, white)" stroke-width="8" stroke-miterlimit="10"/>
<path id="Vector_253" d="M1920.25 774.892H1836.94V851.984H1920.25V774.892Z" stroke="var(--stroke-0, white)" stroke-width="8" stroke-miterlimit="10"/>
<path id="Vector_254" d="M87.3123 851.984H4V929.075H87.3123V851.984Z" stroke="var(--stroke-0, white)" stroke-width="8" stroke-miterlimit="10"/>
<path id="Vector_255" d="M170.625 851.984H87.3123V929.075H170.625V851.984Z" stroke="var(--stroke-0, white)" stroke-width="8" stroke-miterlimit="10"/>
<path id="Vector_256" d="M253.944 851.984H170.632V929.075H253.944V851.984Z" stroke="var(--stroke-0, white)" stroke-width="8" stroke-miterlimit="10"/>
<path id="Vector_257" d="M337.257 851.984H253.944V929.075H337.257V851.984Z" stroke="var(--stroke-0, white)" stroke-width="8" stroke-miterlimit="10"/>
<path id="Vector_258" d="M420.576 851.984H337.264V929.075H420.576V851.984Z" stroke="var(--stroke-0, white)" stroke-width="8" stroke-miterlimit="10"/>
<path id="Vector_259" d="M503.889 851.984H420.576V929.075H503.889V851.984Z" stroke="var(--stroke-0, white)" stroke-width="8" stroke-miterlimit="10"/>
<path id="Vector_260" d="M587.201 851.984H503.889V929.075H587.201V851.984Z" stroke="var(--stroke-0, white)" stroke-width="8" stroke-miterlimit="10"/>
<path id="Vector_261" d="M670.521 851.984H587.209V929.075H670.521V851.984Z" stroke="var(--stroke-0, white)" stroke-width="8" stroke-miterlimit="10"/>
<path id="Vector_262" d="M753.833 851.984H670.521V929.075H753.833V851.984Z" stroke="var(--stroke-0, white)" stroke-width="8" stroke-miterlimit="10"/>
<path id="Vector_263" d="M837.153 851.984H753.841V929.075H837.153V851.984Z" stroke="var(--stroke-0, white)" stroke-width="8" stroke-miterlimit="10"/>
<path id="Vector_264" d="M920.465 851.984H837.153V929.075H920.465V851.984Z" stroke="var(--stroke-0, white)" stroke-width="8" stroke-miterlimit="10"/>
<path id="Vector_265" d="M1003.78 851.984H920.465V929.075H1003.78V851.984Z" stroke="var(--stroke-0, white)" stroke-width="8" stroke-miterlimit="10"/>
<path id="Vector_266" d="M1087.1 851.984H1003.79V929.075H1087.1V851.984Z" stroke="var(--stroke-0, white)" stroke-width="8" stroke-miterlimit="10"/>
<path id="Vector_267" d="M1170.41 851.984H1087.1V929.075H1170.41V851.984Z" stroke="var(--stroke-0, white)" stroke-width="8" stroke-miterlimit="10"/>
<path id="Vector_268" d="M1253.73 851.984H1170.42V929.075H1253.73V851.984Z" stroke="var(--stroke-0, white)" stroke-width="8" stroke-miterlimit="10"/>
<path id="Vector_269" d="M1337.04 851.984H1253.73V929.075H1337.04V851.984Z" stroke="var(--stroke-0, white)" stroke-width="8" stroke-miterlimit="10"/>
<path id="Vector_270" d="M1420.35 851.984H1337.04V929.075H1420.35V851.984Z" stroke="var(--stroke-0, white)" stroke-width="8" stroke-miterlimit="10"/>
<path id="Vector_271" d="M1503.67 851.984H1420.36V929.075H1503.67V851.984Z" stroke="var(--stroke-0, white)" stroke-width="8" stroke-miterlimit="10"/>
<path id="Vector_272" d="M1586.99 851.984H1503.67V929.075H1586.99V851.984Z" stroke="var(--stroke-0, white)" stroke-width="8" stroke-miterlimit="10"/>
<path id="Vector_273" d="M1670.31 851.984H1586.99V929.075H1670.31V851.984Z" stroke="var(--stroke-0, white)" stroke-width="8" stroke-miterlimit="10"/>
<path id="Vector_274" d="M1753.62 851.984H1670.31V929.075H1753.62V851.984Z" stroke="var(--stroke-0, white)" stroke-width="8" stroke-miterlimit="10"/>
<path id="Vector_275" d="M1836.93 851.984H1753.62V929.075H1836.93V851.984Z" stroke="var(--stroke-0, white)" stroke-width="8" stroke-miterlimit="10"/>
<path id="Vector_276" d="M1920.25 851.984H1836.94V929.075H1920.25V851.984Z" stroke="var(--stroke-0, white)" stroke-width="8" stroke-miterlimit="10"/>
<path id="Vector_277" d="M87.3123 929.075H4V1006.17H87.3123V929.075Z" stroke="var(--stroke-0, white)" stroke-width="8" stroke-miterlimit="10"/>
<path id="Vector_278" d="M170.625 929.075H87.3123V1006.17H170.625V929.075Z" stroke="var(--stroke-0, white)" stroke-width="8" stroke-miterlimit="10"/>
<path id="Vector_279" d="M253.944 929.075H170.632V1006.17H253.944V929.075Z" stroke="var(--stroke-0, white)" stroke-width="8" stroke-miterlimit="10"/>
<path id="Vector_280" d="M337.257 929.075H253.944V1006.17H337.257V929.075Z" stroke="var(--stroke-0, white)" stroke-width="8" stroke-miterlimit="10"/>
<path id="Vector_281" d="M420.576 929.075H337.264V1006.17H420.576V929.075Z" stroke="var(--stroke-0, white)" stroke-width="8" stroke-miterlimit="10"/>
<path id="Vector_282" d="M503.889 929.075H420.576V1006.17H503.889V929.075Z" stroke="var(--stroke-0, white)" stroke-width="8" stroke-miterlimit="10"/>
<path id="Vector_283" d="M587.201 929.075H503.889V1006.17H587.201V929.075Z" stroke="var(--stroke-0, white)" stroke-width="8" stroke-miterlimit="10"/>
<path id="Vector_284" d="M670.521 929.075H587.209V1006.17H670.521V929.075Z" stroke="var(--stroke-0, white)" stroke-width="8" stroke-miterlimit="10"/>
<path id="Vector_285" d="M753.833 929.075H670.521V1006.17H753.833V929.075Z" stroke="var(--stroke-0, white)" stroke-width="8" stroke-miterlimit="10"/>
<path id="Vector_286" d="M837.153 929.075H753.841V1006.17H837.153V929.075Z" stroke="var(--stroke-0, white)" stroke-width="8" stroke-miterlimit="10"/>
<path id="Vector_287" d="M920.465 929.075H837.153V1006.17H920.465V929.075Z" stroke="var(--stroke-0, white)" stroke-width="8" stroke-miterlimit="10"/>
<path id="Vector_288" d="M1003.78 929.075H920.465V1006.17H1003.78V929.075Z" stroke="var(--stroke-0, white)" stroke-width="8" stroke-miterlimit="10"/>
<path id="Vector_289" d="M1087.1 929.075H1003.79V1006.17H1087.1V929.075Z" stroke="var(--stroke-0, white)" stroke-width="8" stroke-miterlimit="10"/>
<path id="Vector_290" d="M1170.41 929.075H1087.1V1006.17H1170.41V929.075Z" stroke="var(--stroke-0, white)" stroke-width="8" stroke-miterlimit="10"/>
<path id="Vector_291" d="M1253.73 929.075H1170.42V1006.17H1253.73V929.075Z" stroke="var(--stroke-0, white)" stroke-width="8" stroke-miterlimit="10"/>
<path id="Vector_292" d="M1337.04 929.075H1253.73V1006.17H1337.04V929.075Z" stroke="var(--stroke-0, white)" stroke-width="8" stroke-miterlimit="10"/>
<path id="Vector_293" d="M1420.35 929.075H1337.04V1006.17H1420.35V929.075Z" stroke="var(--stroke-0, white)" stroke-width="8" stroke-miterlimit="10"/>
<path id="Vector_294" d="M1503.67 929.075H1420.36V1006.17H1503.67V929.075Z" stroke="var(--stroke-0, white)" stroke-width="8" stroke-miterlimit="10"/>
<path id="Vector_295" d="M1586.99 929.075H1503.67V1006.17H1586.99V929.075Z" stroke="var(--stroke-0, white)" stroke-width="8" stroke-miterlimit="10"/>
<path id="Vector_296" d="M1670.31 929.075H1586.99V1006.17H1670.31V929.075Z" stroke="var(--stroke-0, white)" stroke-width="8" stroke-miterlimit="10"/>
<path id="Vector_297" d="M1753.62 929.075H1670.31V1006.17H1753.62V929.075Z" stroke="var(--stroke-0, white)" stroke-width="8" stroke-miterlimit="10"/>
<path id="Vector_298" d="M1836.93 929.075H1753.62V1006.17H1836.93V929.075Z" stroke="var(--stroke-0, white)" stroke-width="8" stroke-miterlimit="10"/>
<path id="Vector_299" d="M1920.25 929.075H1836.94V1006.17H1920.25V929.075Z" stroke="var(--stroke-0, white)" stroke-width="8" stroke-miterlimit="10"/>
<path id="Vector_300" d="M87.3123 1006.16H4V1083.25H87.3123V1006.16Z" stroke="var(--stroke-0, white)" stroke-width="8" stroke-miterlimit="10"/>
<path id="Vector_301" d="M170.625 1006.16H87.3123V1083.25H170.625V1006.16Z" stroke="var(--stroke-0, white)" stroke-width="8" stroke-miterlimit="10"/>
<path id="Vector_302" d="M253.944 1006.16H170.632V1083.25H253.944V1006.16Z" stroke="var(--stroke-0, white)" stroke-width="8" stroke-miterlimit="10"/>
<path id="Vector_303" d="M337.257 1006.16H253.944V1083.25H337.257V1006.16Z" stroke="var(--stroke-0, white)" stroke-width="8" stroke-miterlimit="10"/>
<path id="Vector_304" d="M420.576 1006.16H337.264V1083.25H420.576V1006.16Z" stroke="var(--stroke-0, white)" stroke-width="8" stroke-miterlimit="10"/>
<path id="Vector_305" d="M503.889 1006.16H420.576V1083.25H503.889V1006.16Z" stroke="var(--stroke-0, white)" stroke-width="8" stroke-miterlimit="10"/>
<path id="Vector_306" d="M587.201 1006.16H503.889V1083.25H587.201V1006.16Z" stroke="var(--stroke-0, white)" stroke-width="8" stroke-miterlimit="10"/>
<path id="Vector_307" d="M670.521 1006.16H587.209V1083.25H670.521V1006.16Z" stroke="var(--stroke-0, white)" stroke-width="8" stroke-miterlimit="10"/>
<path id="Vector_308" d="M753.833 1006.16H670.521V1083.25H753.833V1006.16Z" stroke="var(--stroke-0, white)" stroke-width="8" stroke-miterlimit="10"/>
<path id="Vector_309" d="M837.153 1006.16H753.841V1083.25H837.153V1006.16Z" stroke="var(--stroke-0, white)" stroke-width="8" stroke-miterlimit="10"/>
<path id="Vector_310" d="M920.465 1006.16H837.153V1083.25H920.465V1006.16Z" stroke="var(--stroke-0, white)" stroke-width="8" stroke-miterlimit="10"/>
<path id="Vector_311" d="M1003.78 1006.16H920.465V1083.25H1003.78V1006.16Z" stroke="var(--stroke-0, white)" stroke-width="8" stroke-miterlimit="10"/>
<path id="Vector_312" d="M1087.1 1006.16H1003.79V1083.25H1087.1V1006.16Z" stroke="var(--stroke-0, white)" stroke-width="8" stroke-miterlimit="10"/>
<path id="Vector_313" d="M1170.41 1006.16H1087.1V1083.25H1170.41V1006.16Z" stroke="var(--stroke-0, white)" stroke-width="8" stroke-miterlimit="10"/>
<path id="Vector_314" d="M1253.73 1006.16H1170.42V1083.25H1253.73V1006.16Z" stroke="var(--stroke-0, white)" stroke-width="8" stroke-miterlimit="10"/>
<path id="Vector_315" d="M1337.04 1006.16H1253.73V1083.25H1337.04V1006.16Z" stroke="var(--stroke-0, white)" stroke-width="8" stroke-miterlimit="10"/>
<path id="Vector_316" d="M1420.35 1006.16H1337.04V1083.25H1420.35V1006.16Z" stroke="var(--stroke-0, white)" stroke-width="8" stroke-miterlimit="10"/>
<path id="Vector_317" d="M1503.67 1006.16H1420.36V1083.25H1503.67V1006.16Z" stroke="var(--stroke-0, white)" stroke-width="8" stroke-miterlimit="10"/>
<path id="Vector_318" d="M1586.99 1006.16H1503.67V1083.25H1586.99V1006.16Z" stroke="var(--stroke-0, white)" stroke-width="8" stroke-miterlimit="10"/>
<path id="Vector_319" d="M1670.31 1006.16H1586.99V1083.25H1670.31V1006.16Z" stroke="var(--stroke-0, white)" stroke-width="8" stroke-miterlimit="10"/>
<path id="Vector_320" d="M1753.62 1006.16H1670.31V1083.25H1753.62V1006.16Z" stroke="var(--stroke-0, white)" stroke-width="8" stroke-miterlimit="10"/>
<path id="Vector_321" d="M1836.93 1006.16H1753.62V1083.25H1836.93V1006.16Z" stroke="var(--stroke-0, white)" stroke-width="8" stroke-miterlimit="10"/>
<path id="Vector_322" d="M1920.25 1006.16H1836.94V1083.25H1920.25V1006.16Z" stroke="var(--stroke-0, white)" stroke-width="8" stroke-miterlimit="10"/>
</g>
</svg>
