<svg preserveAspectRatio="none" width="100%" height="100%" overflow="visible" style="display: block;" viewBox="0 0 1398 671" fill="none" xmlns="http://www.w3.org/2000/svg">
<g id="_&#234;&#178;&#169;&#235;&#166;&#172;_&#235;&#170;&#168;&#235;&#147;&#156;" clip-path="url(#clip0_2005_299)">
<g id="Group">
<path id="Vector" d="M998.317 280.81H1161.37V163.238H998.317V280.81Z" fill="var(--fill-0, #D1F1E3)" fill-opacity="0.45"/>
<path id="Vector_2" d="M998.317 357.402H1161.37V280.753H998.317V357.402Z" fill="var(--fill-0, #7CE5C0)" fill-opacity="0.45"/>
<path id="Vector_3" d="M998.007 163.493L1161.37 163.493V0L998.007 0V163.493Z" fill="var(--fill-0, #72DE9F)" fill-opacity="0.6"/>
</g>
<g id="Group_2">
<path id="Vector_4" d="M686.456 478.814L964.481 478.814V278.324H686.456V478.814Z" fill="var(--fill-0, #D1F1E3)" fill-opacity="0.45"/>
<path id="Vector_5" d="M686.456 609.461H964.481V478.785H686.456V609.461Z" fill="var(--fill-0, #7CE5C0)" fill-opacity="0.45"/>
<path id="Vector_6" d="M685.948 278.804L964.538 278.804V0L685.948 0V278.804Z" fill="var(--fill-0, #72DE9F)" fill-opacity="0.6"/>
</g>
<g id="Group_3">
<path id="Vector_7" d="M514.115 216.22L639.667 216.22V125.677L514.115 125.677V216.22Z" fill="var(--fill-0, #D1F1E3)" fill-opacity="0.45"/>
<path id="Vector_8" d="M514.115 275.189H639.667V216.192H514.115V275.189Z" fill="var(--fill-0, #7CE5C0)" fill-opacity="0.45"/>
<path id="Vector_9" d="M513.918 125.903L639.724 125.903V-7.62939e-06L513.918 -7.62939e-06V125.903Z" fill="var(--fill-0, #72DE9F)" fill-opacity="0.6"/>
</g>
<g id="Group_4">
<path id="Vector_10" d="M414.78 102.631L474.381 102.631V59.647L414.78 59.647V102.631Z" fill="var(--fill-0, #D1F1E3)" fill-opacity="0.45"/>
<path id="Vector_11" d="M414.78 130.647H474.381V102.631H414.78V130.647Z" fill="var(--fill-0, #7CE5C0)" fill-opacity="0.45"/>
<path id="Vector_12" d="M414.667 59.7599L474.381 59.7599V3.8147e-06L414.667 3.8147e-06V59.7599Z" fill="var(--fill-0, #72DE9F)" fill-opacity="0.6"/>
</g>
<g id="Group_5">
<path id="Vector_13" d="M1195.1 102.631L1254.7 102.631V59.647L1195.1 59.647V102.631Z" fill="var(--fill-0, #D1F1E3)" fill-opacity="0.45"/>
<path id="Vector_14" d="M1195.1 130.647H1254.7V102.631H1195.1V130.647Z" fill="var(--fill-0, #D1F1E3)" fill-opacity="0.45"/>
<path id="Vector_15" d="M1195.01 59.7599L1254.73 59.7599V3.8147e-06L1195.01 3.8147e-06V59.7599Z" fill="var(--fill-0, #72DE9F)" fill-opacity="0.6"/>
</g>
<g id="Group_6">
<path id="Vector_16" d="M1382.34 71.2544H1332.53V121.101H1382.34V71.2544Z" fill="var(--fill-0, white)" fill-opacity="0.45"/>
<path id="Vector_17" d="M1382.34 130.788H1332.53V180.635H1382.34V130.788Z" fill="var(--fill-0, #8CE1B0)" fill-opacity="0.45"/>
<path id="Vector_18" d="M1382.34 190.294H1332.53V240.141H1382.34V190.294Z" fill="var(--fill-0, white)" fill-opacity="0.45"/>
<path id="Vector_19" d="M1382.34 249.828H1332.53V299.675H1382.34V249.828Z" fill="var(--fill-0, #8CE1B0)" fill-opacity="0.45"/>
<path id="Vector_20" d="M1382.34 309.362H1332.53V359.209H1382.34V309.362Z" fill="var(--fill-0, white)" fill-opacity="0.45"/>
</g>
<g id="Group_7">
<path id="Vector_21" d="M1089.41 420.127H1073.86V435.688H1089.41V420.127Z" fill="var(--fill-0, white)" fill-opacity="0.45"/>
<path id="Vector_22" d="M1089.41 457.265H1073.86V472.826H1089.41V457.265Z" fill="var(--fill-0, white)" fill-opacity="0.45"/>
<path id="Vector_23" d="M1073.86 509.936V494.403H1089.41V509.936" fill="var(--fill-0, white)" fill-opacity="0.45"/>
</g>
<path id="Vector_24" d="M605.323 367.371H555.514V417.218H605.323V367.371Z" fill="var(--fill-0, white)" fill-opacity="0.45"/>
<path id="Vector_25" d="M1246.66 518.861H1196.85V568.708H1246.66V518.861Z" fill="var(--fill-0, white)" fill-opacity="0.45"/>
<path id="Vector_26" d="M355.715 52.3323H305.907V102.179H355.715V52.3323Z" fill="var(--fill-0, white)" fill-opacity="0.45"/>
<g id="Group_8">
<path id="Vector_27" d="M822.816 561.111L775.265 608.727H870.395L822.816 561.111Z" fill="var(--fill-0, white)" fill-opacity="0.45"/>
<path id="Vector_28" d="M822.816 623.384L775.265 671H870.395L822.816 623.384Z" fill="var(--fill-0, #8CE1B0)" fill-opacity="0.45"/>
</g>
<path id="Vector_29" d="M262.815 136.239H205.33V193.768H262.815V136.239Z" fill="var(--fill-0, #D1F1E3)" fill-opacity="0.45"/>
<g id="Group_9">
<path id="Vector_30" d="M155.352 76.8181H181.117V51.0332H155.352V76.8181Z" fill="var(--fill-0, #72DE9F)" fill-opacity="0.6"/>
<path id="Vector_31" d="M155.352 26.0673L181.117 26.0673V0.282417L155.352 0.282417V26.0673Z" fill="var(--fill-0, #72DE9F)" fill-opacity="0.6"/>
<path id="Vector_32" d="M163.31 119.774H173.216V109.861H163.31V119.774Z" fill="var(--fill-0, #72DE9F)" fill-opacity="0.6"/>
</g>
<g id="Group_10">
<path id="Vector_33" d="M6.40598 54.8176H16.3113V44.9047H6.40598L6.40598 54.8176Z" fill="var(--fill-0, #72DE9F)" fill-opacity="0.6"/>
<path id="Vector_34" d="M-1.90735e-06 25.9543L25.765 25.9543L25.765 0.169451L-1.90735e-06 0.169451L-1.90735e-06 25.9543Z" fill="var(--fill-0, #72DE9F)" fill-opacity="0.6"/>
</g>
<g id="Group_11">
<path id="Vector_35" d="M204.935 54.8176H214.84V44.9047H204.935V54.8176Z" fill="var(--fill-0, #72DE9F)" fill-opacity="0.6"/>
<path id="Vector_36" d="M198.529 25.9543L224.294 25.9543V0.169451L198.529 0.169451V25.9543Z" fill="var(--fill-0, #72DE9F)" fill-opacity="0.6"/>
</g>
<path id="Vector_37" d="M1398.03 455.514H1362.64V490.929H1398.03V455.514Z" fill="var(--fill-0, #D1F1E3)" fill-opacity="0.45"/>
</g>
<defs>
<clipPath id="clip0_2005_299">
<rect width="1398" height="671" fill="white"/>
</clipPath>
</defs>
</svg>
