<svg preserveAspectRatio="none" width="100%" height="100%" overflow="visible" style="display: block;" viewBox="0 0 22 24" fill="none" xmlns="http://www.w3.org/2000/svg">
<g id="Group 14983">
<path id="Subtract" d="M7.7 15.5C7.7 14.6716 7.02843 14 6.2 14H2C0.895431 14 0 14.8954 0 16V22C0 23.1046 0.89543 24 2 24H20C21.1046 24 22 23.1046 22 22V16C22 14.8954 21.1046 14 20 14H15.8C14.9716 14 14.3 14.6716 14.3 15.5C14.3 16.3284 13.6284 17 12.8 17H9.2C8.37157 17 7.7 16.3284 7.7 15.5Z" fill="var(--fill-0, white)"/>
<path id="Subtract_2" fill-rule="evenodd" clip-rule="evenodd" d="M5.87016 0C4.99659 0 4.2241 0.566967 3.96218 1.40035L0.630859 12H8.40137C9.22979 12 9.90137 12.6716 9.90137 13.5V13.9C9.90137 14.5075 10.3939 15 11.0014 15C11.6089 15 12.1014 14.5075 12.1014 13.9V13.5C12.1014 12.6716 12.7729 12 13.6014 12H21.3737L18.0424 1.40035C17.7805 0.566967 17.008 0 16.1344 0H5.87016ZM11.0012 2C10.449 2.00011 10.0012 2.44778 10.0012 3V7.15723L8.24629 6.01855C7.78309 5.71778 7.16328 5.8493 6.8625 6.3125C6.56177 6.77569 6.69328 7.39552 7.15645 7.69629L10.4572 9.83887C10.7884 10.0537 11.215 10.0539 11.5461 9.83887L14.8459 7.69629C15.3091 7.39551 15.4406 6.7757 15.1398 6.3125C14.8391 5.84945 14.2202 5.71792 13.757 6.01855L12.0012 7.1582V3C12.0012 2.44772 11.5535 2 11.0012 2Z" fill="var(--fill-0, white)"/>
</g>
</svg>
