<svg width="200" height="200" viewBox="0 0 200 200" fill="none" xmlns="http://www.w3.org/2000/svg">
<g transform="translate(15.6, 17.8)">
<path d="M128.992 34.6022C130.273 32.6225 132.138 28.7869 132.955 26.7448C133.272 25.9545 132.968 25.1612 132.293 24.6432C129.749 22.6923 128.869 21.8379 128.869 17.2302C128.869 14.3491 130.318 12.9831 131.503 12.3475C132.317 11.9114 133.024 11.1191 133.248 10.2237C133.476 9.31131 133.849 8.35988 134.25 7.65778C139.237 -0.107541 148.608 3.78384 152.287 6.08847C155.965 8.39304 160.194 14.3083 153.881 31.6657C147.974 47.9071 133.828 57.6228 129.463 61.3157C129.576 63.7784 129.319 64.7014 128.184 62.8698C128.034 62.6287 128.521 62.1123 129.463 61.3157C129.2 55.6329 126.964 41.7521 128.992 34.6022Z" fill="#FF8C78"/>
<path d="M128.992 34.6022L128.067 34.0039L127.977 34.1427L127.932 34.3018L128.992 34.6022ZM132.955 26.7448L133.978 27.1541V27.1541L132.955 26.7448ZM134.25 7.65778L133.323 7.06262C133.313 7.07882 133.303 7.0953 133.293 7.11203L134.25 7.65778ZM152.287 6.08847L151.702 7.02173L151.702 7.02173L152.287 6.08847ZM153.881 31.6657L154.916 32.0421V32.0421L153.881 31.6657ZM128.184 62.8698L127.248 63.4501L127.248 63.4501L128.184 62.8698ZM132.293 24.6432L132.963 23.7693L132.963 23.7693L132.293 24.6432ZM131.503 12.3475L132.024 13.3181H132.024L131.503 12.3475ZM133.248 10.2237L132.179 9.95665V9.95665L133.248 10.2237ZM128.992 34.6022L129.916 35.2005C131.247 33.1439 133.143 29.2399 133.978 27.1541L132.955 26.7448L131.933 26.3356C131.133 28.3339 129.298 32.1011 128.067 34.0039L128.992 34.6022ZM134.25 7.65778L135.177 8.25294C137.398 4.79359 140.543 3.92964 143.666 4.19428C146.855 4.46449 149.948 5.92256 151.702 7.02173L152.287 6.08847L152.871 5.15521C150.947 3.94975 147.515 2.30982 143.852 1.99951C140.124 1.68362 136.089 2.75664 133.323 7.06262L134.25 7.65778ZM152.287 6.08847L151.702 7.02173C153.307 8.02737 155.081 9.82963 155.747 13.4325C156.425 17.0972 155.969 22.7014 152.846 31.2893L153.881 31.6657L154.916 32.0421C158.105 23.2727 158.692 17.2405 157.913 13.032C157.124 8.7618 154.945 6.45414 152.871 5.1552L152.287 6.08847ZM153.881 31.6657L152.846 31.2893C147.064 47.1879 133.223 56.6925 128.751 60.4748L129.463 61.3157L130.174 62.1565C134.434 58.5531 148.885 48.6262 154.916 32.0421L153.881 31.6657ZM129.463 61.3157L128.751 60.4748C128.278 60.8755 127.86 61.2535 127.576 61.5865C127.439 61.7475 127.276 61.9628 127.171 62.2152C127.067 62.466 126.943 62.959 127.248 63.4501L128.184 62.8698L129.12 62.2895C129.349 62.66 129.231 62.998 129.205 63.0593C129.179 63.1223 129.169 63.1134 129.252 63.0157C129.409 62.8311 129.706 62.5525 130.174 62.1565L129.463 61.3157ZM128.184 62.8698L127.248 63.4501C127.535 63.9129 127.859 64.3658 128.23 64.6362C128.42 64.7746 128.779 64.9802 129.244 64.9263C129.759 64.8666 130.072 64.5342 130.228 64.2835C130.374 64.0474 130.445 63.7921 130.486 63.5962C130.529 63.386 130.555 63.1573 130.57 62.9253C130.599 62.4615 130.592 61.8955 130.563 61.2649L129.463 61.3157L128.363 61.3664C128.39 61.9672 128.393 62.44 128.371 62.7847C128.36 62.9569 128.344 63.0749 128.329 63.149C128.311 63.2373 128.305 63.204 128.356 63.1227C128.415 63.0268 128.613 62.7821 128.991 62.7383C129.319 62.7003 129.519 62.8499 129.527 62.8557C129.549 62.8721 129.518 62.853 129.431 62.7445C129.351 62.6435 129.248 62.4958 129.12 62.2895L128.184 62.8698ZM129.463 61.3157L130.563 61.2649C130.496 59.8095 130.303 57.843 130.089 55.6433C129.874 53.4295 129.635 50.954 129.467 48.4358C129.128 43.3518 129.096 38.272 130.051 34.9027L128.992 34.6022L127.932 34.3018C126.86 38.0823 126.932 43.518 127.27 48.5824C127.44 51.1385 127.682 53.6456 127.897 55.8562C128.113 58.0808 128.299 59.9805 128.363 61.3664L129.463 61.3157ZM132.293 24.6432L132.963 23.7693C131.667 22.7758 131.013 22.2099 130.604 21.4246C130.195 20.638 129.971 19.498 129.971 17.2302H128.869H127.768C127.768 19.57 127.984 21.1611 128.65 22.4414C129.317 23.723 130.374 24.5597 131.622 25.5171L132.293 24.6432ZM128.869 17.2302H129.971C129.971 14.82 131.135 13.7947 132.024 13.3181L131.503 12.3475L130.983 11.3769C129.501 12.1714 127.768 13.8782 127.768 17.2302H128.869ZM133.248 10.2237L134.316 10.4907C134.523 9.66276 134.862 8.80722 135.206 8.20353L134.25 7.65778L133.293 7.11203C132.837 7.91254 132.428 8.95987 132.179 9.95665L133.248 10.2237ZM131.503 12.3475L132.024 13.3181C133.055 12.7648 134.003 11.7432 134.316 10.4907L133.248 10.2237L132.179 9.95665C132.045 10.4949 131.578 11.058 130.983 11.3769L131.503 12.3475ZM132.955 26.7448L133.978 27.1541C134.513 25.8162 133.948 24.5249 132.963 23.7693L132.293 24.6432L131.622 25.5171C131.988 25.7976 132.03 26.0929 131.933 26.3356L132.955 26.7448Z" fill="black"/>
<path d="M137.374 20.3696C136.775 20.2603 136.202 20.6567 136.092 21.255C135.983 21.8534 136.379 22.427 136.978 22.5364L137.176 21.453L137.374 20.3696ZM141.752 19.4776L140.717 19.1013V19.1013L141.752 19.4776ZM137.176 11.2931L137.196 10.192L137.194 10.1919L137.176 11.2931ZM137.176 21.453L136.978 22.5364C137.747 22.6769 138.882 22.7141 139.973 22.392C141.091 22.062 142.255 21.3176 142.787 19.8539L141.752 19.4776L140.717 19.1013C140.491 19.7241 140.009 20.0848 139.349 20.2795C138.663 20.482 137.889 20.4637 137.374 20.3696L137.176 21.453ZM141.752 19.4776L142.787 19.8539C143.65 17.4797 143.632 15.113 142.646 13.2709C141.635 11.3832 139.707 10.2374 137.196 10.192L137.176 11.2931L137.156 12.3943C138.967 12.427 140.114 13.2084 140.704 14.3108C141.319 15.4589 141.428 17.1452 140.717 19.1013L141.752 19.4776ZM137.176 11.2931L137.194 10.1919C133.91 10.1373 132.249 10.5755 130.537 11.642L131.119 12.5768L131.701 13.5116C132.941 12.7393 134.142 12.3441 137.157 12.3943L137.176 11.2931Z" fill="black"/>
<path d="M150.015 23.2661C150.572 23.0224 150.826 22.373 150.582 21.8157C150.338 21.2585 149.689 21.0044 149.132 21.2482L149.573 22.2572L150.015 23.2661ZM140.721 20.8483L139.853 21.526C140.605 22.4892 141.734 23.5844 143.453 24.0855C145.179 24.5887 147.325 24.4427 150.015 23.2661L149.573 22.2572L149.132 21.2482C146.776 22.2788 145.171 22.2921 144.069 21.9709C142.96 21.6475 142.186 20.9347 141.59 20.1706L140.721 20.8483Z" fill="black"/>
<path d="M38.4012 43.1463C41.6515 51.5073 38.9437 55.9867 34.1394 58.2318L37.9565 61.1677C37.9565 61.1677 42.9434 62.317 44.8183 66.4386C46.5909 70.3354 44.3891 83.8333 44.3891 83.8333C36.7576 81.0011 36.2667 81.1136 31.5133 76.6135C16.601 66.7927 16.6984 54.869 17.52 50.3514C25.7234 33.0964 36.2889 41.1705 38.4012 43.1463Z" fill="#FF8C78"/>
<path d="M55.1048 112.895L54.8769 89.9988L80.6125 101.578L80.7701 117.415C80.7701 125.604 67.8928 125.751 61.5921 125.999C47.0412 125.999 44.77 122.653 44.7701 119.675C44.7701 114.911 51.6573 113.143 55.1048 112.895Z" fill="#FF8C78" stroke="black" stroke-width="2.4" stroke-linecap="round" stroke-linejoin="round"/>
<path d="M113.635 112.895L113.863 89.9988L88.1277 101.578L87.9701 117.415C87.9701 125.604 100.847 125.751 107.148 125.999C121.699 125.999 123.97 122.653 123.97 119.675C123.97 114.911 117.083 113.143 113.635 112.895Z" fill="#FF8C78" stroke="black" stroke-width="2.4" stroke-linecap="round" stroke-linejoin="round"/>
<circle cx="84.3696" cy="52.2" r="51" fill="#FF8C78" stroke="black" stroke-width="2.4"/>
<circle cx="75.9688" cy="35.3988" r="2.4" fill="black"/>
<circle cx="92.7688" cy="35.3988" r="2.4" fill="black"/>
<path d="M100.445 43.0486C97.8935 45.8672 93.2478 48.1522 84.3692 48.1522C75.4907 48.1522 70.8449 45.8672 68.2932 43.0486" stroke="black" stroke-width="2.4" stroke-linecap="round"/>
<path d="M23.0754 60.9965C17.3023 56.9378 15.56 49.5374 19.1839 44.4673C22.8078 39.3972 30.4255 38.5773 36.1986 42.636C41.9717 46.6946 42.6367 54.0454 39.0128 59.1156C35.3889 64.1857 28.8485 65.0552 23.0754 60.9965Z" fill="#FF8C78"/>
<path d="M33.676 62.2627C40.7595 61.3945 43.6773 50.9988 38.9132 44.5095C36.1849 40.7933 29.9753 36.4247 22.6995 40.8722C15.4237 45.3198 13.3571 57.0463 21.9091 68.2999C29.8319 77.3667 37.7496 79.5127 42.3356 81.4263" stroke="black" stroke-width="2.4" stroke-linecap="round"/>
</g>
</svg>
