<svg width="200" height="200" viewBox="0 0 200 200" fill="none" xmlns="http://www.w3.org/2000/svg">
<g transform="translate(14.2, 17.1)">
  <path id="svg_1" stroke-linejoin="round" stroke-linecap="round" stroke-width="2.4" stroke="black" fill="#FF8C78" d="m56.5803,113.612l-0.2278,-22.896l25.7355,11.579l0.1576,15.837c0,8.188 -12.8773,8.336 -19.1779,8.584c-14.5509,0 -16.8222,-3.346 -16.8221,-6.324c0,-4.764 6.8872,-6.532 10.3347,-6.78z"/>
  <path id="svg_2" stroke-linejoin="round" stroke-linecap="round" stroke-width="2.4" stroke="black" fill="#FF8C78" d="m115.111,113.612l0.228,-22.896l-25.7358,11.579l-0.1576,15.837c0,8.188 12.8774,8.336 19.1774,8.584c14.551,0 16.823,-3.346 16.823,-6.324c0,-4.764 -6.888,-6.532 -10.335,-6.78z"/>
  <path id="svg_3" fill="#FF8C78" d="m135.983,34.6938c-3.442,8.2837 -0.839,12.8245 3.912,15.18l-3.884,2.847c0,0 -5.012,1.0337 -6.981,5.1108c-1.863,3.8549 0.52,15.6354 0.52,15.6354c7.695,-2.6547 7.843,-2.212 12.546,-5.1557c15.135,-9.4735 15.313,-21.3963 14.596,-25.9317c-7.802,-17.4399 -18.551,-9.6122 -20.709,-7.6858z"/>
  <path id="svg_4" fill="#FF8C78" d="m34.2668,34.6934c3.4426,8.2836 0.8391,12.8244 -3.912,15.18l3.8839,2.8469c0,0 5.0121,1.0337 6.9817,5.1109c1.8623,3.8548 -0.5202,15.6358 -0.5202,15.6358c-7.6949,-2.6551 -7.8435,-2.213 -12.5461,-5.1562c-15.1352,-9.4734 -15.3134,-21.3963 -14.5964,-25.9317c7.8024,-17.4399 18.5517,-9.6121 20.7091,-7.6857z"/>
  <circle id="svg_5" stroke-width="2.4" stroke="black" fill="#FF8C78" r="51" cy="52.9168" cx="85.8452"/>
  <circle id="svg_6" fill="black" r="2.4" cy="36.1157" cx="77.4444"/>
  <circle id="svg_7" fill="black" r="2.4" cy="36.1157" cx="94.2445"/>
  <path id="svg_8" stroke-linecap="round" stroke-width="2.4" stroke="black" d="m104.745,43.3172c-3,3.3137 -8.462,6 -18.9002,6c-10.4382,0 -15.9,-2.6863 -18.9,-6"/>
  <path id="svg_9" fill="#FF8C78" d="m151.419,52.0413c5.661,-4.2129 7.203,-11.6576 3.444,-16.6281c-3.759,-4.9705 -11.396,-5.5847 -17.058,-1.3717c-5.661,4.2129 -6.128,11.579 -2.368,16.5495c3.759,4.9705 10.32,5.6632 15.982,1.4503z"/>
  <path id="svg_10" stroke-linecap="round" stroke-width="2.4" stroke="black" d="m141.649,54.181c-7.105,-0.6768 -11.094,-11.5779 -6.507,-18.1934c2.627,-3.7885 8.717,-8.323 16.11,-4.0734c7.393,4.2497 9.775,15.9162 1.53,27.3964c-7.676,9.2772 -15.532,11.636 -20.065,13.6724"/>
  <path id="svg_11" fill="#FF8C78" d="m20.294,52.0413c-5.6615,-4.2129 -7.2035,-11.6576 -3.4441,-16.6281c3.7593,-4.9705 11.3964,-5.5847 17.0579,-1.3717c5.6615,4.2129 6.1279,11.579 2.3686,16.5495c-3.7594,4.9705 -10.3209,5.6632 -15.9824,1.4503z"/>
  <path id="svg_12" stroke-linecap="round" stroke-width="2.4" stroke="black" d="m30.0643,54.181c7.1043,-0.6768 11.0938,-11.5779 6.5066,-18.1934c-2.6271,-3.7885 -8.7166,-8.323 -16.1098,-4.0734c-7.3931,4.2497 -9.7752,15.9162 -1.53,27.3964c7.6754,9.2772 15.5323,11.636 20.065,13.6724"/>
</g>
</svg>