<svg width="200" height="200" viewBox="0 0 200 200" fill="none" xmlns="http://www.w3.org/2000/svg">
<g transform="translate(12, 17.6)">
<path d="M52.1601 30.7047C46.7186 37.8364 41.4845 37.8602 37.0644 34.9302L37.0644 38.4905C37.0644 38.4905 39.6047 45.3923 37.0644 49.1405C34.6626 52.6844 39.8503 69.9906 39.8503 69.9906C22.7503 65.7905 18.6452 48.672 20.0081 42.2697C20.617 24.4245 30.8439 18.2929 35.1276 16.6395C54.1291 14.647 52.7453 27.8722 52.1601 30.7047Z" fill="#FF8C78"/>
<path d="M123.841 30.7047C129.282 37.8364 134.517 37.8602 138.937 34.9302L138.937 38.4905C138.937 38.4905 136.396 45.3923 138.937 49.1405C141.338 52.6844 136.151 69.9906 136.151 69.9906C153.251 65.7905 157.356 48.672 155.993 42.2697C155.384 24.4245 145.157 18.2929 140.873 16.6395C121.872 14.647 123.256 27.8722 123.841 30.7047Z" fill="#FF8C78"/>
<path d="M58.7351 113.135L58.5072 90.2381L84.2428 101.818L84.4004 117.655C84.4004 125.843 71.5231 125.99 65.2225 126.238C50.6715 126.238 48.4003 122.892 48.4004 119.915C48.4004 115.15 55.2876 113.383 58.7351 113.135Z" fill="#FF8C78" stroke="black" stroke-width="2.4" stroke-linecap="round" stroke-linejoin="round"/>
<path d="M117.266 113.135L117.494 90.2381L91.758 101.818L91.6004 117.655C91.6004 125.843 104.478 125.99 110.778 126.238C125.329 126.238 127.6 122.892 127.6 119.915C127.6 115.15 120.713 113.383 117.266 113.135Z" fill="#FF8C78" stroke="black" stroke-width="2.4" stroke-linecap="round" stroke-linejoin="round"/>
<circle cx="88" cy="52.4393" r="51" fill="#FF8C78" stroke="black" stroke-width="2.4"/>
<circle cx="79.5992" cy="35.6381" r="2.4" fill="black"/>
<circle cx="96.3992" cy="35.6381" r="2.4" fill="black"/>
<path d="M100.9 46.4393C100.9 46.4393 95.4378 49.4393 87.9996 49.4393C80.5614 49.4393 75.0996 46.4393 75.0996 46.4393" stroke="black" stroke-width="2.4" stroke-linecap="round"/>
<path d="M28.4827 27.5538C28.9375 20.5114 34.3451 15.1674 40.5609 15.6175C46.7767 16.0677 54.5551 19.5995 54.1003 26.6418C53.6455 33.6841 44.6104 40.625 38.3946 40.1749C32.1788 39.7247 28.0279 34.5961 28.4827 27.5538Z" fill="#FF8C78"/>
<path d="M32.9281 37.2613C37.361 42.854 47.7538 39.9258 50.8088 32.4777C51.6314 30.4723 55.1759 27.735 54.7334 24.9928C54.2348 21.9027 49.4826 18.8064 45.4623 16.7446C37.8744 12.8534 26.7895 17.2017 21.6427 30.3656C20.5784 33.3346 19.8043 37.9096 19.8572 43.2205C19.8216 50.6446 23.8306 66.4228 40.1506 70.1428" stroke="black" stroke-width="2.4" stroke-linecap="round"/>
<path d="M147.518 27.5538C147.063 20.5114 141.656 15.1674 135.44 15.6175C129.224 16.0677 121.446 19.5995 121.901 26.6418C122.356 33.6841 131.391 40.625 137.606 40.1749C143.822 39.7247 147.973 34.5961 147.518 27.5538Z" fill="#FF8C78"/>
<path d="M143.073 37.2613C138.64 42.854 128.247 39.9258 125.192 32.4777C124.37 30.4723 120.825 27.735 121.268 24.9928C121.766 21.9027 126.518 18.8064 130.539 16.7446C138.127 12.8534 149.211 17.2017 154.358 30.3656C155.423 33.3346 156.197 37.9096 156.144 43.2205C156.179 50.6446 152.17 66.4228 135.85 70.1428" stroke="black" stroke-width="2.4" stroke-linecap="round"/>
</g>
</svg>