<svg preserveAspectRatio="none" width="100%" height="100%" overflow="visible" style="display: block;" viewBox="0 0 22 28" fill="none" xmlns="http://www.w3.org/2000/svg">
<g id="Group 15193">
<path id="Union" fill-rule="evenodd" clip-rule="evenodd" d="M11 2C11 0.895431 10.1046 0 9 0C7.89543 0 7 0.895431 7 2H6C5.44772 2 5 2.44772 5 3V5H13V3C13 2.44772 12.5523 2 12 2H11Z" fill="var(--fill-0, white)"/>
<path id="Subtract" fill-rule="evenodd" clip-rule="evenodd" d="M17 28C19.7614 28 22 25.7614 22 23C22 20.2386 19.7614 18 17 18C14.2386 18 12 20.2386 12 23C12 25.7614 14.2386 28 17 28ZM19.207 21.293C18.8165 20.9024 18.1835 20.9024 17.793 21.293L16 23.0859L15.707 22.793C15.3165 22.4024 14.6835 22.4024 14.293 22.793C13.9024 23.1835 13.9024 23.8165 14.293 24.207L15.293 25.207C15.6835 25.5976 16.3165 25.5976 16.707 25.207L19.207 22.707C19.5976 22.3165 19.5976 21.6835 19.207 21.293Z" fill="var(--fill-0, white)"/>
<path id="Subtract_2" fill-rule="evenodd" clip-rule="evenodd" d="M3 4H1C0.447715 4 0 4.44772 0 5V25C0 25.5523 0.447716 26 1 26H11.8027C11.2922 25.1175 11 24.0929 11 23C11 21.9071 11.2922 20.8825 11.8027 20H10C9.44771 20 9 19.5523 9 19C9 18.4477 9.44771 18 10 18H13.6822C14.6325 17.3682 15.7733 17 17 17C17.3407 17 17.6748 17.0284 18 17.083V5C18 4.44772 17.5523 4 17 4H15V7H3V4ZM7.20703 9.79297C6.81651 9.40244 6.18349 9.40244 5.79297 9.79297L4 11.5859L3.70703 11.293C3.31651 10.9024 2.68349 10.9024 2.29297 11.293C1.90244 11.6835 1.90244 12.3165 2.29297 12.707L3.29297 13.707C3.68349 14.0976 4.31651 14.0976 4.70703 13.707L7.20703 11.207C7.59756 10.8165 7.59756 10.1835 7.20703 9.79297ZM5.79297 16.293C6.18349 15.9024 6.81651 15.9024 7.20703 16.293C7.59756 16.6835 7.59756 17.3165 7.20703 17.707L4.70703 20.207C4.31651 20.5976 3.68349 20.5976 3.29297 20.207L2.29297 19.207C1.90244 18.8165 1.90244 18.1835 2.29297 17.793C2.68349 17.4024 3.31651 17.4024 3.70703 17.793L4 18.0859L5.79297 16.293ZM16 12C16 11.4477 15.5523 11 15 11H10C9.44771 11 9 11.4477 9 12C9 12.5523 9.44771 13 10 13H15C15.5523 13 16 12.5523 16 12Z" fill="var(--fill-0, white)"/>
</g>
</svg>
