<svg preserveAspectRatio="none" width="100%" height="100%" overflow="visible" style="display: block;" viewBox="0 0 24 24" fill="none" xmlns="http://www.w3.org/2000/svg">
<g id="Subtract">
<mask id="path-1-inside-1_11854_158434" fill="white">
<path fill-rule="evenodd" clip-rule="evenodd" d="M12 0C5.37258 0 0 5.37258 0 12C0 18.6274 5.37258 24 12 24C18.6274 24 24 18.6274 24 12C24 5.37258 18.6274 0 12 0ZM16.738 7.856C16.738 7.196 16.564 6.596 16.216 6.056C15.868 5.516 15.334 5.084 14.614 4.76C13.906 4.436 13.024 4.274 11.968 4.274C10.936 4.274 10.066 4.43 9.358 4.742C8.662 5.042 8.128 5.42 7.756 5.876C7.6 6.068 7.522 6.266 7.522 6.47C7.522 6.782 7.69 7.064 8.026 7.316C8.23 7.472 8.5 7.55 8.836 7.55C9.328 7.55 9.748 7.4 10.096 7.1L10.384 6.812C10.54 6.668 10.738 6.548 10.978 6.452C11.23 6.356 11.536 6.308 11.896 6.308C12.616 6.308 13.12 6.446 13.408 6.722C13.696 6.998 13.84 7.4 13.84 7.928C13.84 8.42 13.69 8.858 13.39 9.242C13.102 9.626 12.706 9.986 12.202 10.322C11.506 10.73 10.996 11.198 10.672 11.726C10.36 12.242 10.204 12.926 10.204 13.778C10.204 14.546 10.69 14.93 11.662 14.93C12.13 14.93 12.472 14.822 12.688 14.606C12.904 14.39 13.012 14.15 13.012 13.886C13.012 13.49 13.03 13.184 13.066 12.968C13.102 12.752 13.186 12.554 13.318 12.374C13.462 12.194 13.678 12.002 13.966 11.798C14.554 11.366 15.034 10.976 15.406 10.628C15.79 10.268 16.108 9.86 16.36 9.404C16.612 8.936 16.738 8.42 16.738 7.856ZM9.862 17.342C9.862 17.822 10.03 18.194 10.366 18.458C10.702 18.734 11.128 18.872 11.644 18.872C12.16 18.872 12.586 18.734 12.922 18.458C13.27 18.194 13.444 17.822 13.444 17.342C13.444 16.862 13.27 16.484 12.922 16.208C12.586 15.932 12.16 15.794 11.644 15.794C11.128 15.794 10.702 15.932 10.366 16.208C10.03 16.484 9.862 16.862 9.862 17.342Z"/>
</mask>
<path fill-rule="evenodd" clip-rule="evenodd" d="M12 0C5.37258 0 0 5.37258 0 12C0 18.6274 5.37258 24 12 24C18.6274 24 24 18.6274 24 12C24 5.37258 18.6274 0 12 0ZM16.738 7.856C16.738 7.196 16.564 6.596 16.216 6.056C15.868 5.516 15.334 5.084 14.614 4.76C13.906 4.436 13.024 4.274 11.968 4.274C10.936 4.274 10.066 4.43 9.358 4.742C8.662 5.042 8.128 5.42 7.756 5.876C7.6 6.068 7.522 6.266 7.522 6.47C7.522 6.782 7.69 7.064 8.026 7.316C8.23 7.472 8.5 7.55 8.836 7.55C9.328 7.55 9.748 7.4 10.096 7.1L10.384 6.812C10.54 6.668 10.738 6.548 10.978 6.452C11.23 6.356 11.536 6.308 11.896 6.308C12.616 6.308 13.12 6.446 13.408 6.722C13.696 6.998 13.84 7.4 13.84 7.928C13.84 8.42 13.69 8.858 13.39 9.242C13.102 9.626 12.706 9.986 12.202 10.322C11.506 10.73 10.996 11.198 10.672 11.726C10.36 12.242 10.204 12.926 10.204 13.778C10.204 14.546 10.69 14.93 11.662 14.93C12.13 14.93 12.472 14.822 12.688 14.606C12.904 14.39 13.012 14.15 13.012 13.886C13.012 13.49 13.03 13.184 13.066 12.968C13.102 12.752 13.186 12.554 13.318 12.374C13.462 12.194 13.678 12.002 13.966 11.798C14.554 11.366 15.034 10.976 15.406 10.628C15.79 10.268 16.108 9.86 16.36 9.404C16.612 8.936 16.738 8.42 16.738 7.856ZM9.862 17.342C9.862 17.822 10.03 18.194 10.366 18.458C10.702 18.734 11.128 18.872 11.644 18.872C12.16 18.872 12.586 18.734 12.922 18.458C13.27 18.194 13.444 17.822 13.444 17.342C13.444 16.862 13.27 16.484 12.922 16.208C12.586 15.932 12.16 15.794 11.644 15.794C11.128 15.794 10.702 15.932 10.366 16.208C10.03 16.484 9.862 16.862 9.862 17.342Z" fill="var(--fill-0, white)"/>
<path d="M14.614 4.76L13.7817 6.57865L13.7933 6.58384L14.614 4.76ZM9.358 4.742L10.1497 6.57865L10.1571 6.57544L10.1645 6.57217L9.358 4.742ZM7.756 5.876L6.20627 4.61174L6.20377 4.61481L7.756 5.876ZM8.026 7.316L9.2409 5.72729L9.23348 5.72161L9.226 5.716L8.026 7.316ZM10.096 7.1L11.4019 8.61482L11.4579 8.56652L11.5102 8.51421L10.096 7.1ZM10.384 6.812L9.02744 5.34239L8.99806 5.36951L8.96978 5.39779L10.384 6.812ZM10.978 6.452L10.266 4.58302L10.2506 4.58891L10.2352 4.59505L10.978 6.452ZM13.39 9.242L11.814 8.01071L11.8018 8.02624L11.79 8.042L13.39 9.242ZM12.202 10.322L13.2134 12.0474L13.2633 12.0182L13.3114 11.9861L12.202 10.322ZM10.672 11.726L8.96732 10.6799L8.96054 10.6912L10.672 11.726ZM13.066 12.968L15.0388 13.2968L15.0388 13.2968L13.066 12.968ZM13.318 12.374L11.7563 11.1246L11.73 11.1574L11.7052 11.1913L13.318 12.374ZM13.966 11.798L15.122 13.4301L15.1362 13.42L15.1502 13.4098L13.966 11.798ZM15.406 10.628L16.7723 12.0885L16.7739 12.0871L15.406 10.628ZM16.36 9.404L18.1105 10.3714L18.1158 10.3618L18.1209 10.3522L16.36 9.404ZM10.366 18.458L11.6355 16.9125L11.6187 16.8988L11.6016 16.8854L10.366 18.458ZM12.922 18.458L11.7132 16.8646L11.6824 16.888L11.6525 16.9125L12.922 18.458ZM12.922 16.208L11.6525 17.7535L11.6658 17.7643L11.6792 17.775L12.922 16.208ZM10.366 16.208L11.6355 17.7535L11.6355 17.7535L10.366 16.208ZM0 12H2C2 6.47715 6.47715 2 12 2V0V-2C4.26801 -2 -2 4.26801 -2 12H0ZM12 24V22C6.47715 22 2 17.5228 2 12H0H-2C-2 19.732 4.26801 26 12 26V24ZM24 12H22C22 17.5228 17.5228 22 12 22V24V26C19.732 26 26 19.732 26 12H24ZM12 0V2C17.5228 2 22 6.47715 22 12H24H26C26 4.26801 19.732 -2 12 -2V0ZM16.216 6.056L14.5349 7.1394C14.6688 7.34718 14.738 7.56915 14.738 7.856H16.738H18.738C18.738 6.82285 18.4592 5.84482 17.8971 4.9726L16.216 6.056ZM14.614 4.76L13.7933 6.58384C14.242 6.78578 14.4396 6.99153 14.5349 7.1394L16.216 6.056L17.8971 4.9726C17.2964 4.04046 16.426 3.38222 15.4347 2.93616L14.614 4.76ZM11.968 4.274V6.274C12.8335 6.274 13.4105 6.40871 13.7818 6.57862L14.614 4.76L15.4462 2.94138C14.4015 2.46329 13.2145 2.274 11.968 2.274V4.274ZM9.358 4.742L10.1645 6.57217C10.5487 6.40288 11.1258 6.274 11.968 6.274V4.274V2.274C10.7462 2.274 9.58333 2.45712 8.55148 2.91183L9.358 4.742ZM7.756 5.876L9.30573 7.14025C9.42468 6.99445 9.66626 6.78701 10.1497 6.57865L9.358 4.742L8.56634 2.90535C7.65773 3.29699 6.83132 3.84555 6.20627 4.61175L7.756 5.876ZM7.522 6.47H9.522C9.522 6.62969 9.49025 6.77733 9.44132 6.90155C9.39408 7.02147 9.33904 7.09927 9.30823 7.13719L7.756 5.876L6.20377 4.61481C5.8219 5.08481 5.522 5.71478 5.522 6.47H7.522ZM8.026 7.316L9.226 5.716C9.21079 5.70459 9.28509 5.75573 9.3662 5.89189C9.45662 6.04366 9.522 6.24656 9.522 6.47H7.522H5.522C5.522 7.6147 6.17479 8.42759 6.826 8.916L8.026 7.316ZM8.836 7.55V5.55C8.80346 5.55 9.00178 5.54443 9.2409 5.72729L8.026 7.316L6.8111 8.90471C7.45822 9.39957 8.19654 9.55 8.836 9.55V7.55ZM10.096 7.1L8.79012 5.58518C8.79184 5.5837 8.79865 5.57816 8.81041 5.57128C8.82227 5.56433 8.83509 5.55839 8.84733 5.55402C8.85315 5.55194 8.85799 5.55052 8.86158 5.54959C8.86515 5.54868 8.86702 5.54837 8.86691 5.54839C8.86686 5.5484 8.85721 5.55 8.836 5.55V7.55V9.55C9.77061 9.55 10.6639 9.25102 11.4019 8.61482L10.096 7.1ZM10.384 6.812L8.96978 5.39779L8.68178 5.68579L10.096 7.1L11.5102 8.51421L11.7982 8.22621L10.384 6.812ZM10.978 6.452L10.2352 4.59505C9.81652 4.76253 9.39699 5.00127 9.02744 5.34239L10.384 6.812L11.7406 8.28161C11.7118 8.30812 11.6913 8.32122 11.6861 8.3244C11.6813 8.32733 11.691 8.32086 11.7208 8.30895L10.978 6.452ZM11.896 6.308V4.308C11.3694 4.308 10.8075 4.37675 10.266 4.58302L10.978 6.452L11.69 8.32097C11.6686 8.32914 11.671 8.3254 11.7064 8.31984C11.742 8.31425 11.8035 8.308 11.896 8.308V6.308ZM13.408 6.722L14.7918 5.27802C13.9278 4.45 12.7554 4.308 11.896 4.308V6.308V8.308C12.0133 8.308 12.104 8.31368 12.1714 8.32128C12.2393 8.32894 12.2753 8.33761 12.2858 8.3405C12.313 8.34794 12.1836 8.31877 12.0242 8.16598L13.408 6.722ZM13.84 7.928H15.84C15.84 7.0388 15.589 6.04199 14.7918 5.27802L13.408 6.722L12.0242 8.16598C11.9289 8.07465 11.8741 7.97462 11.8492 7.90495C11.8278 7.84522 11.84 7.84155 11.84 7.928H13.84ZM13.39 9.242L14.966 10.4733C15.5436 9.73398 15.84 8.86155 15.84 7.928H13.84H11.84C11.84 7.94906 11.8384 7.96203 11.8374 7.96841C11.8364 7.97463 11.8355 7.97717 11.8354 7.97751C11.8353 7.97784 11.8347 7.97954 11.8326 7.98348C11.8303 7.98755 11.8249 7.99664 11.814 8.01071L13.39 9.242ZM12.202 10.322L13.3114 11.9861C13.9568 11.5558 14.5356 11.0478 14.99 10.442L13.39 9.242L11.79 8.042C11.6684 8.20417 11.4552 8.41619 11.0926 8.6579L12.202 10.322ZM10.672 11.726L12.3766 12.772C12.4848 12.5958 12.7178 12.3379 13.2134 12.0474L12.202 10.322L11.1906 8.5966C10.2942 9.12207 9.50723 9.80017 8.96735 10.68L10.672 11.726ZM10.204 13.778H12.204C12.204 13.1476 12.3227 12.8614 12.3835 12.7608L10.672 11.726L8.96054 10.6912C8.39734 11.6226 8.204 12.7044 8.204 13.778H10.204ZM11.662 14.93V12.93C11.3854 12.93 11.5472 12.8663 11.8084 13.0727C11.9539 13.1877 12.0689 13.3411 12.1379 13.5046C12.2017 13.656 12.204 13.7623 12.204 13.778H10.204H8.204C8.204 14.6121 8.49153 15.5499 9.32858 16.2113C10.0758 16.8017 10.9666 16.93 11.662 16.93V14.93ZM12.688 14.606L11.2738 13.1918C11.4294 13.0362 11.5852 12.9677 11.6672 12.9418C11.7401 12.9188 11.7503 12.93 11.662 12.93V14.93V16.93C12.3839 16.93 13.3527 16.7697 14.1022 16.0202L12.688 14.606ZM13.012 13.886H11.012C11.012 13.736 11.0447 13.5821 11.1072 13.4433C11.1672 13.3098 11.2375 13.2281 11.2738 13.1918L12.688 14.606L14.1022 16.0202C14.6295 15.4929 15.012 14.7643 15.012 13.886H13.012ZM13.066 12.968L11.0932 12.6392C11.0301 13.0177 11.012 13.4527 11.012 13.886H13.012H15.012C15.012 13.5273 15.0299 13.3503 15.0388 13.2968L13.066 12.968ZM13.318 12.374L11.7052 11.1913C11.3917 11.6187 11.1817 12.1082 11.0932 12.6392L13.066 12.968L15.0388 13.2968C15.0314 13.3414 15.0178 13.3899 14.9972 13.4386C14.9766 13.4871 14.9527 13.5268 14.9308 13.5567L13.318 12.374ZM13.966 11.798L12.81 10.1659C12.4412 10.4271 12.0614 10.7432 11.7563 11.1246L13.318 12.374L14.8797 13.6234C14.8661 13.6405 14.873 13.6287 14.9167 13.5898C14.9593 13.552 15.0255 13.4984 15.122 13.4301L13.966 11.798ZM15.406 10.628L14.0397 9.16746C13.7441 9.44397 13.3309 9.78285 12.7818 10.1862L13.966 11.798L15.1502 13.4098C15.7771 12.9491 16.3239 12.508 16.7723 12.0885L15.406 10.628ZM16.36 9.404L14.6095 8.43663C14.4596 8.70784 14.2713 8.95034 14.0381 9.16893L15.406 10.628L16.7739 12.0871C17.3087 11.5857 17.7564 11.0122 18.1105 10.3714L16.36 9.404ZM16.738 7.856H14.738C14.738 8.10987 14.6845 8.29704 14.5991 8.4558L16.36 9.404L18.1209 10.3522C18.5395 9.57496 18.738 8.73013 18.738 7.856H16.738ZM10.366 18.458L11.6016 16.8854C11.6746 16.9427 11.756 17.0365 11.8107 17.1578C11.8623 17.2721 11.862 17.3476 11.862 17.342H9.862H7.862C7.862 18.3496 8.24791 19.3373 9.13036 20.0306L10.366 18.458ZM11.644 18.872V16.872C11.564 16.872 11.5401 16.8614 11.5539 16.8658C11.5606 16.868 11.5733 16.8729 11.5897 16.8817C11.6061 16.8907 11.6218 16.9013 11.6355 16.9125L10.366 18.458L9.09652 20.0035C9.85433 20.6259 10.7552 20.872 11.644 20.872V18.872ZM12.922 18.458L11.6525 16.9125C11.6662 16.9013 11.6819 16.8907 11.6983 16.8817C11.7147 16.8729 11.7274 16.868 11.7341 16.8658C11.7479 16.8614 11.724 16.872 11.644 16.872V18.872V20.872C12.5328 20.872 13.4337 20.6259 14.1915 20.0035L12.922 18.458ZM13.444 17.342H11.444C11.444 17.3383 11.4456 17.254 11.5019 17.1336C11.5611 17.0071 11.6457 16.9159 11.7132 16.8646L12.922 18.458L14.1308 20.0514C15.0314 19.3682 15.444 18.3764 15.444 17.342H13.444ZM12.922 16.208L11.6792 17.775C11.6242 17.7313 11.5498 17.6501 11.4967 17.5348C11.4458 17.4242 11.444 17.3466 11.444 17.342H13.444H15.444C15.444 16.308 15.0338 15.3302 14.1648 14.641L12.922 16.208ZM11.644 15.794V17.794C11.724 17.794 11.7479 17.8046 11.7341 17.8002C11.7274 17.798 11.7147 17.7931 11.6983 17.7843C11.6819 17.7753 11.6662 17.7647 11.6525 17.7535L12.922 16.208L14.1915 14.6625C13.4337 14.0401 12.5328 13.794 11.644 13.794V15.794ZM10.366 16.208L11.6355 17.7535C11.6218 17.7647 11.6061 17.7753 11.5897 17.7843C11.5733 17.7931 11.5606 17.798 11.5539 17.8002C11.5401 17.8046 11.564 17.794 11.644 17.794V15.794V13.794C10.7552 13.794 9.85433 14.0401 9.09652 14.6625L10.366 16.208ZM9.862 17.342H11.862C11.862 17.3373 11.8621 17.4063 11.8156 17.5108C11.7667 17.6209 11.6954 17.7042 11.6355 17.7535L10.366 16.208L9.09653 14.6625C8.24616 15.3611 7.862 16.334 7.862 17.342H9.862Z" fill="var(--stroke-0, white)" mask="url(#path-1-inside-1_11854_158434)"/>
</g>
</svg>
