<svg preserveAspectRatio="none" width="100%" height="100%" overflow="visible" style="display: block;" viewBox="0 0 21 24" fill="none" xmlns="http://www.w3.org/2000/svg">
<g id="Group 15192">
<path id="Subtract" fill-rule="evenodd" clip-rule="evenodd" d="M0 1C0 0.447716 0.447715 0 1 0H2V24H1C0.447715 24 0 23.5523 0 23V1ZM3 24H20C20.5523 24 21 23.5523 21 23V1C21 0.447715 20.5523 0 20 0H3V24ZM8.30408 6.53726L7.13744 8.63873C7.07577 8.74982 7.1561 8.8863 7.28315 8.8863H16.6935C16.8256 8.8863 16.9052 8.73992 16.8334 8.62903L14.3546 4.80182C13.9469 4.17231 13.0787 4.19079 12.6942 4.83717L11 7.68543L9.90488 6.37031C9.45506 5.83013 8.65004 5.91409 8.30408 6.53726ZM7.50265 19.1207C7.44992 19.2794 7.33459 19.4017 7.15664 19.4876C6.9787 19.5736 6.7711 19.5901 6.53384 19.5372C6.40861 19.4975 6.30646 19.4446 6.22737 19.3785C6.14829 19.3124 6.08897 19.2364 6.04943 19.1504C6.01648 19.0645 6 18.9785 6 18.8926C6 18.8066 6.01318 18.724 6.03954 18.6446L8.18477 12.5653C8.2309 12.4331 8.32647 12.3074 8.47146 12.1884C8.62304 12.0628 8.84712 12 9.1437 12C9.44027 12 9.66435 12.0628 9.81593 12.1884C9.96752 12.3074 10.0664 12.4331 10.1125 12.5653L12.2577 18.6645C12.3368 18.8959 12.3335 19.081 12.2478 19.2198C12.1622 19.3587 12.0139 19.4579 11.803 19.5174C11.5525 19.5901 11.3416 19.5835 11.1703 19.4975C11.0055 19.4116 10.8902 19.2694 10.8243 19.0711L10.3695 17.7124H7.97717L7.50265 19.1207ZM9.96422 16.5124L9.17335 14.1422L8.38249 16.5124H9.96422ZM16.4776 19.3091C16.1151 19.5273 15.6043 19.6364 14.9453 19.6364C14.2071 19.6364 13.6634 19.4975 13.3141 19.2198C12.9714 18.9488 12.7935 18.6116 12.7803 18.2083C12.7407 17.6331 12.9516 17.2033 13.413 16.919C13.8809 16.6281 14.5762 16.4826 15.4989 16.4826H16.3293C16.3161 16.2711 16.2041 16.0893 15.9932 15.9372C15.7889 15.7785 15.5088 15.6992 15.1529 15.6992C14.7574 15.6992 14.418 15.7587 14.1346 15.8777C13.9699 15.9438 13.8249 15.9769 13.6997 15.9769C13.4822 15.9769 13.3273 15.8777 13.235 15.6793C13.1955 15.5802 13.1757 15.4876 13.1757 15.4016C13.1757 15.1769 13.291 15.0083 13.5217 14.8959C13.726 14.7901 13.9798 14.7074 14.2829 14.6479C14.5927 14.5818 14.8958 14.5488 15.1924 14.5488C15.8185 14.5488 16.3425 14.6446 16.7643 14.8364C17.1861 15.0215 17.4958 15.2694 17.6935 15.5802C17.8978 15.8843 18 16.2215 18 16.5917V18.9025C18 19.114 17.9275 19.276 17.7825 19.3884C17.6375 19.5074 17.4398 19.5669 17.1894 19.5669C16.8467 19.5669 16.6094 19.481 16.4776 19.3091ZM14.4312 18.0496C14.4312 18.195 14.4905 18.3107 14.6092 18.3967C14.7278 18.4826 14.8926 18.5256 15.1034 18.5256C15.4264 18.5256 15.7131 18.4496 15.9635 18.2975C16.214 18.1455 16.3392 17.9636 16.3392 17.7521V17.5537H15.4692C15.0738 17.5537 14.8003 17.5934 14.6487 17.6727C14.5037 17.7521 14.4312 17.8777 14.4312 18.0496ZM8.875 4.45606C9.22018 4.45606 9.50001 4.17624 9.50001 3.83106C9.50001 3.48588 9.22018 3.20605 8.875 3.20605C8.52982 3.20605 8.25 3.48588 8.25 3.83106C8.25 4.17624 8.52982 4.45606 8.875 4.45606Z" fill="var(--fill-0, white)"/>
</g>
</svg>
