<svg preserveAspectRatio="none" width="100%" height="100%" overflow="visible" style="display: block;" viewBox="0 0 35.4359 33.7157" fill="none" xmlns="http://www.w3.org/2000/svg">
<g id="Group 15191">
<path id="Star 7" d="M8.97115 10.1942C8.83462 8.79562 10.1451 7.69604 11.4987 8.07335L14.8177 8.99849C15.2608 9.12201 15.733 9.08899 16.1546 8.905L19.3125 7.52696C20.6005 6.96492 22.0512 7.87143 22.1106 9.27542L22.2564 12.7178C22.2758 13.1774 22.4531 13.6163 22.7584 13.9604L25.0449 16.5379C25.9774 17.5892 25.5636 19.249 24.2467 19.7394L21.0178 20.9418C20.5867 21.1023 20.2241 21.4066 19.9911 21.8033L18.2463 24.7743C17.5347 25.986 15.8282 26.1054 14.9549 25.0045L12.8136 22.3052C12.5277 21.9448 12.1263 21.6939 11.677 21.595L8.31222 20.8537C6.93988 20.5513 6.29906 18.9652 7.07621 17.7944L8.98168 14.9238C9.23609 14.5405 9.3506 14.0813 9.3059 13.6234L8.97115 10.1942Z" stroke="var(--stroke-0, white)" stroke-width="2.6"/>
<path id="Rectangle 797" d="M20.7929 23.5889C20.2226 23.0109 20.2669 22.0693 20.8889 21.5473C21.5069 21.0288 22.4351 21.1434 22.9084 21.7967L27.2037 27.7254C27.4604 28.0797 27.3996 28.572 27.0645 28.8532C26.7317 29.1324 26.2403 29.1093 25.9352 28.8001L20.7929 23.5889Z" fill="var(--fill-0, white)"/>
<path id="Star 8" d="M24.6526 26.5495C24.6253 26.2698 24.8874 26.0499 25.1581 26.1253L26.5994 26.5271C26.6881 26.5518 26.7825 26.5452 26.8668 26.5084L28.2382 25.91C28.4958 25.7976 28.7859 25.9789 28.7978 26.2597L28.8611 27.7546C28.865 27.8465 28.9005 27.9343 28.9615 28.0031L29.9545 29.1225C30.141 29.3327 30.0582 29.6647 29.7948 29.7627L28.3926 30.2849C28.3064 30.317 28.2339 30.3779 28.1873 30.4572L27.4296 31.7474C27.2872 31.9898 26.9459 32.0136 26.7713 31.7935L25.8414 30.6212C25.7842 30.5492 25.7039 30.499 25.6141 30.4792L24.1528 30.1573C23.8784 30.0968 23.7502 29.7796 23.9056 29.5454L24.7331 28.2988C24.784 28.2221 24.8069 28.1303 24.798 28.0387L24.6526 26.5495Z" fill="var(--fill-0, white)"/>
<rect id="Rectangle 798" x="29.7598" y="16.5395" width="2.013" height="6.039" rx="1.0065" transform="rotate(-109.963 29.7598 16.5395)" fill="var(--fill-0, white)"/>
<rect id="Rectangle 799" x="29.0957" y="19.1235" width="2.013" height="5.4351" rx="1.0065" transform="rotate(-72.7038 29.0957 19.1235)" fill="var(--fill-0, white)"/>
<rect id="Rectangle 800" width="2.013" height="5.4351" rx="1.0065" transform="matrix(0.801736 0.597679 0.597679 -0.801736 26.9492 12.8008)" fill="var(--fill-0, white)"/>
<path id="Subtract" fill-rule="evenodd" clip-rule="evenodd" d="M11.4987 8.07337C10.1451 7.69606 8.83463 8.79564 8.97115 10.1942L9.3059 13.6234C9.3506 14.0813 9.23609 14.5405 8.98168 14.9238L7.07621 17.7944C6.29906 18.9652 6.93988 20.5513 8.31222 20.8537L11.677 21.595C12.1263 21.694 12.5277 21.9448 12.8136 22.3052L14.9549 25.0045C15.8282 26.1054 17.5347 25.986 18.2463 24.7743L19.9911 21.8033C20.2241 21.4066 20.5867 21.1024 21.0178 20.9418L24.2467 19.7394C25.5636 19.249 25.9774 17.5892 25.0449 16.538L22.7584 13.9604C22.4531 13.6163 22.2758 13.1775 22.2564 12.7178L22.1106 9.27544C22.0512 7.87145 20.6005 6.96494 19.3125 7.52698L16.1546 8.90502C15.733 9.08901 15.2608 9.12203 14.8177 8.99851L11.4987 8.07337ZM12.9275 12.227C12.7245 12.1704 12.5279 12.3354 12.5484 12.5451L12.8253 15.3821C12.832 15.4508 12.8149 15.5197 12.7767 15.5772L11.2003 17.9521C11.0837 18.1277 11.1799 18.3656 11.3857 18.411L14.1694 19.0243C14.2368 19.0391 14.297 19.0767 14.3399 19.1308L16.1114 21.3639C16.2424 21.5291 16.4984 21.5112 16.6051 21.3294L18.0486 18.8714C18.0836 18.8119 18.138 18.7663 18.2026 18.7422L20.8739 17.7475C21.0714 17.6739 21.1335 17.4249 20.9936 17.2673L19.102 15.1349C19.0562 15.0833 19.0296 15.0174 19.0267 14.9485L18.9061 12.1006C18.8972 11.89 18.6796 11.754 18.4864 11.8383L15.8739 12.9784C15.8106 13.006 15.7398 13.0109 15.6733 12.9924L12.9275 12.227Z" fill="var(--fill-0, white)"/>
</g>
</svg>
