<svg preserveAspectRatio="none" width="100%" height="100%" overflow="visible" style="display: block;" viewBox="0 0 160 160" fill="none" xmlns="http://www.w3.org/2000/svg">
<g id="Group 37175">
<circle id="Ellipse 10" cx="80" cy="80" r="75" fill="var(--fill-0, #E5F6DB)" stroke="var(--stroke-0, #95E566)" stroke-width="10"/>
<g id="Group 37174">
<g id="Vector">
<path d="M81.0262 41.7779C82.7512 43.1877 83.6165 44.617 84.1114 46.787V47.3399C84.3574 47.2487 84.6007 47.1575 84.855 47.0635C86.7182 46.5355 88.8165 46.5023 90.6438 47.1326C91.545 47.7961 92.0619 48.3213 92.2499 49.4465C92.2518 50.86 92.0278 51.9262 91.5782 52.6449C91.3957 52.8108 91.2133 52.9767 91.0253 53.1453C91.6583 53.2835 92.2914 53.4107 92.9272 53.5323C93.5409 53.6512 94.1491 53.7784 94.7573 53.9166C95.9515 54.1764 97.1366 54.2059 98.3124 54.005C98.9012 53.5793 99.3739 53.1204 99.8715 52.5924C100.076 52.4017 100.278 52.2109 100.488 52.0146C101.53 51.0222 102.465 49.9993 103.327 48.8438C105.265 46.2977 107.725 44.3764 110.929 43.7461C113.163 43.5443 115.062 43.7766 116.912 45.098C118.744 46.635 119.867 48.0062 120.152 50.4113C120.259 53.1149 119.665 55.1219 117.959 57.2229C116.735 58.5277 115.3 59.3017 113.691 60.0564C113.981 60.203 114.274 60.3522 114.573 60.5043C118.803 62.6771 122.609 65.1486 126.131 68.3498C126.372 68.5682 126.615 68.7866 126.861 69.0105C132.813 74.6721 136.694 82.8632 136.99 91.0875C137.142 98.3414 135.605 104.971 130.831 110.646C130.712 110.806 130.59 110.967 130.466 111.13C126.197 116.62 118.49 119.216 111.869 120.131C105.251 120.858 98.4368 120.393 91.8076 120.006C81.5819 119.409 71.3285 119.802 61.1111 120.416C50.5509 121.038 39.5981 120.136 31.3075 112.858C31.0974 112.672 30.8873 112.49 30.6717 112.299C25.7454 107.696 23.4177 100.934 23.0169 94.3357C22.746 85.9649 25.7454 77.4089 31.3103 71.1143C31.5093 70.8848 31.7083 70.6554 31.9129 70.4204C32.5321 69.721 33.1624 69.0326 33.7983 68.3498C33.9807 68.148 34.1659 67.9462 34.3539 67.7389C37.4252 64.4962 41.1904 62.0966 45.1325 60.0564C45.3316 59.9514 45.5306 59.8491 45.7352 59.7413C45.9342 59.639 46.1305 59.5395 46.3351 59.4344C46.5157 59.3423 46.6972 59.2483 46.8797 59.1525C47.1893 59.0179 47.5284 58.9507 47.897 58.9507C47.7809 58.7433 47.6648 58.536 47.5431 58.3231C47.3911 58.0522 47.239 57.7785 47.0842 57.4993C46.9322 57.2312 46.7829 56.9602 46.6281 56.6838C45.5389 54.5248 45.655 51.8681 46.3931 49.604C47.3883 47.2211 48.8203 45.8941 51.148 44.827C53.2987 43.9507 56.0411 43.9397 58.2443 44.6971C60.4891 45.7753 61.6612 47.5335 62.5293 49.8114C63.0379 51.3788 63.3337 52.8799 63.3752 54.5275C64.0147 54.4372 64.6597 54.3451 65.3103 54.2511C65.2191 54.0465 65.1278 53.8392 65.0339 53.6291C64.2183 50.5688 64.821 47.4948 66.347 44.7662C67.8453 42.4358 69.8385 41.2222 72.4288 40.3597C75.4337 39.7128 78.4387 40.0639 81.0235 41.7779H81.0262Z" fill="#FDCC43"/>
<path d="M81.0262 41.7779C82.7512 43.1877 83.6165 44.617 84.1114 46.787V47.3399C84.3574 47.2487 84.6007 47.1575 84.855 47.0635C86.7182 46.5355 88.8165 46.5023 90.6438 47.1326C91.545 47.7961 92.0619 48.3213 92.2499 49.4465C92.2518 50.86 92.0278 51.9262 91.5782 52.6449C91.3957 52.8108 91.2133 52.9767 91.0253 53.1453C91.6583 53.2835 92.2914 53.4107 92.9272 53.5323C93.5409 53.6512 94.1491 53.7784 94.7573 53.9166C95.9515 54.1764 97.1366 54.2059 98.3124 54.005C98.9012 53.5793 99.3739 53.1204 99.8715 52.5924C100.076 52.4017 100.278 52.2109 100.488 52.0146C101.53 51.0222 102.465 49.9993 103.327 48.8438C105.265 46.2977 107.725 44.3764 110.929 43.7461C113.163 43.5443 115.062 43.7766 116.912 45.098C118.744 46.635 119.867 48.0062 120.152 50.4113C120.259 53.1149 119.665 55.1219 117.959 57.2229C116.735 58.5277 115.3 59.3017 113.691 60.0564C113.981 60.203 114.274 60.3522 114.573 60.5043C118.803 62.6771 122.609 65.1486 126.131 68.3498C126.372 68.5682 126.615 68.7866 126.861 69.0105C132.813 74.6721 136.694 82.8632 136.99 91.0875C137.142 98.3414 135.605 104.971 130.831 110.646C130.712 110.806 130.59 110.967 130.466 111.13C126.197 116.62 118.49 119.216 111.869 120.131C105.251 120.858 98.4368 120.393 91.8076 120.006C81.5819 119.409 71.3285 119.802 61.1111 120.416C50.5509 121.038 39.5981 120.136 31.3075 112.858C31.0974 112.672 30.8873 112.49 30.6717 112.299C25.7454 107.696 23.4177 100.934 23.0169 94.3357C22.746 85.9649 25.7454 77.4089 31.3103 71.1143C31.5093 70.8848 31.7083 70.6554 31.9129 70.4204C32.5321 69.721 33.1624 69.0326 33.7983 68.3498C33.9807 68.148 34.1659 67.9462 34.3539 67.7389C37.4252 64.4962 41.1904 62.0966 45.1325 60.0564C45.3316 59.9514 45.5306 59.8491 45.7352 59.7413C45.9342 59.639 46.1305 59.5395 46.3351 59.4344C46.5157 59.3423 46.6972 59.2483 46.8797 59.1525C47.1893 59.0179 47.5284 58.9507 47.897 58.9507C47.7809 58.7433 47.6648 58.536 47.5431 58.3231C47.3911 58.0522 47.239 57.7785 47.0842 57.4993C46.9322 57.2312 46.7829 56.9602 46.6281 56.6838C45.5389 54.5248 45.655 51.8681 46.3931 49.604C47.3883 47.2211 48.8203 45.8941 51.148 44.827C53.2987 43.9507 56.0411 43.9397 58.2443 44.6971C60.4891 45.7753 61.6612 47.5335 62.5293 49.8114C63.0379 51.3788 63.3337 52.8799 63.3752 54.5275C64.0147 54.4372 64.6597 54.3451 65.3103 54.2511C65.2191 54.0465 65.1278 53.8392 65.0339 53.6291C64.2183 50.5688 64.821 47.4948 66.347 44.7662C67.8453 42.4358 69.8385 41.2222 72.4288 40.3597C75.4337 39.7128 78.4387 40.0639 81.0235 41.7779H81.0262ZM103.991 51.9372C101.576 54.9284 99.5407 56.5622 97.8839 56.8386C96.8306 56.8746 95.8603 56.7225 94.8402 56.4737C93.5271 56.1751 92.2223 56.0037 90.8815 55.8793C90.6327 55.8572 90.3839 55.8324 90.1268 55.8102C87.3237 55.5725 84.5233 55.5504 81.709 55.5614C80.8299 55.5642 79.9509 55.5614 79.069 55.5587C74.0985 55.5559 69.1031 55.708 64.2487 56.8552C63.2922 57.0321 62.4131 57.0625 61.4401 57.0183C60.948 56.5262 61.0917 55.7688 61.0586 55.0998C60.8485 52.1777 60.1518 49.5432 57.9485 47.4975C56.5331 46.5659 55.0569 46.6405 53.4204 46.7898C51.6622 47.2072 50.443 47.8984 49.3179 49.311C48.3338 50.9089 48.2398 52.4182 48.4443 54.2538C48.8369 55.531 49.4838 56.6396 50.1721 57.7785C50.6642 58.6936 50.7029 59.0585 50.6559 60.0592C50.3905 60.1864 50.1251 60.3135 49.8542 60.4462C39.9077 65.2896 31.1637 72.2035 27.2741 82.9268C24.7944 90.2001 24.9022 97.5231 28.098 104.57C29.0462 106.403 30.2266 107.989 31.5867 109.537C31.771 109.748 31.9571 109.96 32.1451 110.176C36.278 114.602 41.8428 116.399 47.6205 117.554C47.8583 117.604 48.096 117.654 48.3421 117.706C49.6607 117.881 50.9655 117.875 52.2925 117.878C52.5883 117.878 52.8868 117.878 53.1937 117.881C53.8267 117.881 54.457 117.881 55.0901 117.881C56.0245 117.881 56.9616 117.886 57.896 117.892C61.183 117.9 64.4395 117.8 67.7209 117.554C71.9063 117.245 76.0751 117.189 80.2688 117.206C80.8576 117.206 81.4464 117.209 82.0353 117.209C86.4584 117.214 90.876 117.25 95.2908 117.552C95.476 117.565 95.6585 117.576 95.8492 117.59C96.0317 117.604 96.2114 117.615 96.3994 117.629C104.494 118.179 113.069 118.519 120.602 115.066C120.901 114.936 121.202 114.804 121.509 114.668C123.463 113.759 125.081 112.631 126.684 111.196C126.913 110.992 127.146 110.787 127.383 110.577C131.259 106.933 134.162 101.418 134.469 96.0441C134.601 86.3326 132.196 78.2659 125.421 71.117C120.962 66.564 115.419 63.5175 109.544 61.1595H108.991V59.5008L110.166 58.9147C110.418 58.7876 110.669 58.6604 110.927 58.5305C111.482 58.2568 112.043 57.9914 112.61 57.7371C114.711 56.7695 116.303 55.7162 117.329 53.5848C117.84 52.0091 117.832 50.3864 117.113 48.8936C115.599 47.2211 114.374 46.4028 112.137 46.0959C108.477 46.2093 106.014 49.2751 103.993 51.9372H103.991Z" fill="#312E2D"/>
<path d="M48.624 75.9687C48.8673 75.9687 49.1106 75.9742 49.3621 75.9769C52.7707 76.0654 55.4246 76.9417 57.849 79.4076C60.3177 82.1859 61.1581 85.4894 60.995 89.1385C60.6522 92.5416 58.8802 94.9632 56.3507 97.1499C53.5752 99.1182 50.385 99.66 47.0676 99.3145C44.5271 98.7118 42.7772 97.2854 40.9858 95.4442C40.8227 95.2867 40.6624 95.1319 40.4938 94.9715C38.332 92.724 37.7597 90.037 37.8178 87.0182C37.9588 83.8529 38.9899 81.5943 41.0881 79.2224C43.4683 77.1242 45.3979 75.9355 48.6213 75.9742L48.624 75.9687Z" fill="#F2714B"/>
<path d="M118.393 77.8181C120.539 79.6979 122.023 82.2274 122.385 85.072C122.496 88.4695 121.514 91.0183 119.22 93.5064C116.942 95.9142 113.705 97.0725 110.443 97.2052C107.137 97.1333 104.776 95.8313 102.426 93.6031C100.339 91.3971 99.7112 88.4585 99.772 85.5088C99.9323 82.6725 101.348 80.002 103.427 78.1056C107.64 74.7274 114.048 74.6307 118.391 77.8181H118.393Z" fill="#F2714B"/>
<path d="M78.7732 43.3481C79.0939 43.5582 79.3989 43.783 79.6882 44.0226C79.843 44.1442 79.9978 44.2659 80.1582 44.3903C81.6814 45.8444 81.8611 47.8265 82.1762 49.828C83.2323 50.1099 83.8349 50.085 84.855 49.7063C86.334 49.2198 88.1862 48.8245 89.6403 49.5515C89.6974 49.9662 89.6974 50.4269 89.6403 50.9337C87.2048 53.2282 83.8183 53.3029 80.6503 53.3167C79.5915 53.3222 78.5327 53.3443 77.4739 53.3637C77.2638 53.3665 77.0537 53.372 76.8353 53.3747C73.905 53.4328 70.9913 53.6954 68.0748 53.9746C67.0685 52.1667 67.2122 49.4299 67.7015 47.4367C68.5392 45.6204 70.2227 43.9258 72.0445 43.0993C74.0957 42.5851 76.8077 42.4745 78.7677 43.3481H78.7732Z" fill="#06CBD1"/>
<path d="M94.9978 75.5015C95.9819 75.9217 96.2086 76.4441 96.626 77.4062C97.2093 79.1948 96.8223 80.6682 96.087 82.338C94.8236 84.6352 92.9106 85.4839 90.4834 86.1999C87.8683 86.739 85.5959 86.2082 83.2848 84.9338C82.8148 84.5772 82.3532 84.2095 81.9026 83.828C81.7975 83.9524 81.6925 84.074 81.5874 84.204C80.0753 85.8626 77.8388 87.2836 75.5415 87.4688C70.8493 87.5554 67.5338 86.7113 65.595 84.9365C64.0165 83.3829 63.3448 81.868 63.2618 79.6841C63.3033 78.1609 63.5189 77.2707 64.4893 76.0903C64.9721 75.8949 65.4329 75.8028 65.8715 75.8138C66.0539 75.9963 66.2364 76.1788 66.4244 76.3667C66.3691 76.8173 66.3083 77.2652 66.2309 77.713C65.9738 79.5016 65.877 81.2128 66.9773 82.725C69.0976 84.7541 71.2677 85.0554 74.1123 85.0057C76.3294 84.8287 78.2424 83.9994 79.7463 82.3269C80.0928 81.8606 80.3922 81.3649 80.6447 80.8396C80.9322 80.436 81.2935 80.1973 81.7284 80.1236C82.7125 80.2757 82.9309 80.6489 83.5308 81.4285C84.7085 82.819 85.5793 83.4631 87.4481 83.629C89.3832 83.6898 91.3321 83.7147 92.8415 82.3297C94.0413 80.964 94.1602 79.7781 94.0689 78.0254C94.0118 77.6716 93.9547 77.314 93.8975 76.9528C93.8644 76.6681 93.8284 76.3833 93.7925 76.0903C94.1611 75.7217 94.5647 75.5263 95.0033 75.5042L94.9978 75.5015Z" fill="#2A2421"/>
<path d="M91.2989 74.7081C91.2879 75.1338 91.1957 75.5945 91.0225 76.0903C90.3664 76.4239 89.7214 76.7003 89.0874 76.9196C89.3942 76.9086 89.7039 76.8975 90.0218 76.8864C90.6889 76.9086 91.2068 77.1039 91.5754 77.4725C91.5754 77.8411 91.4832 78.2097 91.2989 78.5783C89.7895 79.3523 87.9871 79.3054 86.3229 79.4076C86.1128 78.6529 85.9857 78.1913 86.2649 77.4449C87.4978 75.5485 88.9187 74.1275 91.2989 74.7081Z" fill="#2F2822"/>
<path d="M74.7122 76.0903C75.254 76.4699 75.7148 76.9307 76.0944 77.4725C76.0944 78.4456 75.9922 79.0897 75.525 79.9439C74.6403 80.4277 73.7585 80.3807 72.7771 80.237C72.4085 80.0527 72.1321 79.7762 71.9478 79.4076C71.8077 78.1489 71.957 77.1813 72.3956 76.505C73.2636 75.9576 73.7004 75.9051 74.7122 76.0903Z" fill="#2B2521"/>
<path d="M106.78 45.4048L107.333 45.6813L103.463 49.5515L102.91 49.2751C103.294 48.8355 103.681 48.3987 104.068 47.9619C104.284 47.7187 104.501 47.4726 104.72 47.2238C105.367 46.5438 106.036 45.9715 106.783 45.4048H106.78Z" fill="#747172"/>
<path d="M49.8321 45.4048L50.385 45.6813C49.3815 46.6848 48.378 47.6883 47.3441 48.7222C47.3441 47.7491 47.4961 47.6109 48.1209 46.9087C48.2647 46.7428 48.4103 46.5751 48.5577 46.4056C48.8544 46.107 49.2792 45.7734 49.8321 45.4048Z" fill="#7E7C7D"/>
<path d="M69.1833 41.811L69.7362 42.0875L67.2482 44.5755L66.6953 44.299C66.9524 43.9867 67.2122 43.677 67.4721 43.3647C67.6158 43.1905 67.7596 43.0191 67.9089 42.8394C68.2056 42.5206 68.6304 42.1769 69.1833 41.8083V41.811Z" fill="var(--fill-0, #6A6768)"/>
</g>
</g>
</g>
</svg>
