<svg preserveAspectRatio="none" width="100%" height="100%" overflow="visible" style="display: block;" viewBox="0 0 320 180.845" fill="none" xmlns="http://www.w3.org/2000/svg">
<g id="Group">
<g id="Group_2">
<path id="Vector" d="M320 55.671H0V69.5887H320V55.671Z" fill="var(--fill-0, #DB2E2E)"/>
<path id="Vector_2" d="M320 27.8355H0V41.7532H320V27.8355Z" fill="var(--fill-0, #DB2E2E)"/>
<path id="Vector_3" d="M320 0H0V13.9177H320V0Z" fill="var(--fill-0, #DB2E2E)"/>
<path id="Vector_4" d="M320 83.5064H0V97.4242H320V83.5064Z" fill="var(--fill-0, #DB2E2E)"/>
<path id="Vector_5" d="M320 111.342H0V125.26H320V111.342Z" fill="var(--fill-0, #DB2E2E)"/>
<path id="Vector_6" d="M320 139.177H0V153.095H320V139.177Z" fill="var(--fill-0, #DB2E2E)"/>
<path id="Vector_7" d="M320 166.927H0V180.845H320V166.927Z" fill="var(--fill-0, #DB2E2E)"/>
</g>
<path id="Vector_8" d="M320 41.7532H0V55.671H320V41.7532Z" fill="var(--fill-0, white)"/>
<path id="Vector_9" d="M320 13.9177H0V27.8355H320V13.9177Z" fill="var(--fill-0, white)"/>
<path id="Vector_10" d="M320 69.5887H0V83.5064H320V69.5887Z" fill="var(--fill-0, white)"/>
<path id="Vector_11" d="M320 97.3387H0V111.256H320V97.3387Z" fill="var(--fill-0, white)"/>
<path id="Vector_12" d="M320 125.26H0V139.177H320V125.26Z" fill="var(--fill-0, white)"/>
<path id="Vector_13" d="M320 153.095H0V167.013H320V153.095Z" fill="var(--fill-0, white)"/>
</g>
</svg>
