<svg preserveAspectRatio="none" width="100%" height="100%" overflow="visible" style="display: block;" viewBox="0 0 332 192" fill="none" xmlns="http://www.w3.org/2000/svg">
<g id="Group 37166">
<path id="Vector" d="M306 3C318.703 3 329 13.2975 329 26V166C329 178.703 318.703 189 306 189H26C13.2975 189 3 178.703 3 166V26C3 13.2975 13.2975 3 26 3H306Z" fill="var(--fill-0, #009B3A)" stroke="var(--stroke-0, #888888)" stroke-width="6"/>
<g id="Group 237">
<path id="Vector_2" d="M71.9727 95.823L165.751 33.5117L259.973 95.6752L165.95 158.512L71.9727 95.823Z" fill="var(--fill-0, #FEDF00)"/>
<path id="Vector_3" d="M166.052 136.972C187.993 136.972 205.779 118.457 205.779 95.618C205.779 72.7786 187.993 54.2637 166.052 54.2637C144.111 54.2637 126.324 72.7786 126.324 95.618C126.324 118.457 144.111 136.972 166.052 136.972Z" fill="var(--fill-0, #002776)"/>
<path id="Vector_4" d="M162.374 79.4483C189.543 85.3999 205.331 101.942 205.331 101.942C204.912 105.163 203.863 108.494 203.863 108.494C186.398 91.2964 164.577 86.6547 164.577 86.6547C145.145 81.7818 127.601 85.2898 127.601 85.2898C128.151 82.9564 129.725 78.9436 129.725 78.9436C129.725 78.9436 142.968 76.3916 162.374 79.4483Z" fill="var(--fill-0, white)"/>
<path id="Vector_5" d="M133.579 86.4902L133.962 87.7167H135.199L134.197 88.473L134.581 89.6995L133.579 88.9416L132.577 89.6995L132.96 88.473L131.958 87.7167H133.195L133.579 86.4902Z" fill="var(--fill-0, white)"/>
<path id="Vector_6" d="M150.835 95.7676L151.168 96.8337H152.245L151.373 97.4941L151.706 98.5602L150.835 97.9013L149.961 98.5602L150.295 97.4941L149.423 96.8337H150.501L150.835 95.7676Z" fill="var(--fill-0, white)"/>
<path id="Vector_7" d="M141.026 102.115L141.229 102.765H141.885L141.354 103.167L141.558 103.817L141.026 103.416L140.495 103.817L140.698 103.167L140.166 102.765H140.824L141.026 102.115Z" fill="var(--fill-0, white)"/>
<path id="Vector_8" d="M137.092 103.824L137.518 105.189H138.895L137.781 106.032L138.207 107.395L137.092 106.552L135.978 107.395L136.403 106.032L135.288 105.189H136.666L137.092 103.824Z" fill="var(--fill-0, white)"/>
<path id="Vector_9" d="M132.162 107.975L132.476 108.981H133.493L132.67 109.604L132.985 110.61L132.162 109.987L131.338 110.61L131.653 109.604L130.83 108.981H131.847L132.162 107.975Z" fill="var(--fill-0, white)"/>
<path id="Vector_10" d="M145.365 108.463L145.68 109.469H146.697L145.874 110.092L146.188 111.098L145.365 110.476L144.542 111.098L144.857 110.092L144.034 109.469H145.051L145.365 108.463Z" fill="var(--fill-0, white)"/>
<path id="Vector_11" d="M144.158 112.613L144.473 113.62H145.49L144.667 114.242L144.982 115.249L144.158 114.626L143.335 115.249L143.65 114.242L142.827 113.62H143.844L144.158 112.613Z" fill="var(--fill-0, white)"/>
<path id="Vector_12" d="M150.033 116.031L150.385 117.157H151.523L150.602 117.852L150.954 118.978L150.033 118.283L149.114 118.978L149.464 117.852L148.545 117.157H149.681L150.033 116.031Z" fill="var(--fill-0, white)"/>
<path id="Vector_13" d="M165.926 112.857L166.277 113.983H167.415L166.494 114.678L166.846 115.804L165.926 115.108L165.006 115.804L165.357 114.678L164.437 113.983H165.575L165.926 112.857Z" fill="var(--fill-0, white)"/>
<path id="Vector_14" d="M170.592 104.557L170.918 105.599H171.972L171.118 106.244L171.444 107.286L170.592 106.642L169.74 107.286L170.066 106.244L169.214 105.599H170.268L170.592 104.557Z" fill="var(--fill-0, white)"/>
<path id="Vector_15" d="M165.927 100.895L166.251 101.937H167.305L166.453 102.582L166.778 103.624L165.927 102.98L165.073 103.624L165.399 102.582L164.547 101.937H165.601L165.927 100.895Z" fill="var(--fill-0, white)"/>
<path id="Vector_16" d="M161.913 104.557L162.2 105.48H163.133L162.379 106.05L162.667 106.973L161.913 106.403L161.157 106.973L161.446 106.05L160.69 105.48H161.623L161.913 104.557Z" fill="var(--fill-0, white)"/>
<path id="Vector_17" d="M163.904 107.975L164.118 108.659H164.811L164.251 109.083L164.465 109.769L163.904 109.344L163.344 109.769L163.558 109.083L162.997 108.659H163.69L163.904 107.975Z" fill="var(--fill-0, white)"/>
<path id="Vector_18" d="M176.766 92.8379L176.981 93.5235H177.673L177.112 93.9464L177.326 94.632L176.766 94.2075L176.205 94.632L176.419 93.9464L175.859 93.5235H176.552L176.766 92.8379Z" fill="var(--fill-0, white)"/>
<path id="Vector_19" d="M178.29 80.875L178.686 82.1455H179.968L178.931 82.9301L179.327 84.1991L178.29 83.4144L177.251 84.1991L177.647 82.9301L176.61 82.1455H177.892L178.29 80.875Z" fill="var(--fill-0, white)"/>
<path id="Vector_20" d="M193.76 108.463L194.156 109.732H195.439L194.402 110.516L194.799 111.785L193.76 111.001L192.723 111.785L193.119 110.516L192.082 109.732H193.364L193.76 108.463Z" fill="var(--fill-0, white)"/>
<path id="Vector_21" d="M192.921 115.543L193.253 116.604H194.325L193.458 117.26L193.788 118.321L192.921 117.666L192.055 118.321L192.386 117.26L191.519 116.604H192.591L192.921 115.543Z" fill="var(--fill-0, white)"/>
<path id="Vector_22" d="M195.388 112.369L195.718 113.429H196.79L195.923 114.085L196.255 115.146L195.388 114.49L194.52 115.146L194.851 114.085L193.983 113.429H195.056L195.388 112.369Z" fill="var(--fill-0, white)"/>
<path id="Vector_23" d="M199.268 109.439L199.52 110.251H200.34L199.677 110.751L199.93 111.562L199.268 111.061L198.605 111.562L198.858 110.751L198.195 110.251H199.014L199.268 109.439Z" fill="var(--fill-0, white)"/>
<path id="Vector_24" d="M189.774 118.229L190.028 119.038H190.846L190.184 119.54L190.436 120.35L189.774 119.848L189.112 120.35L189.365 119.54L188.703 119.038H189.521L189.774 118.229Z" fill="var(--fill-0, white)"/>
<path id="Vector_25" d="M185.84 121.158L186.131 122.087H187.07L186.31 122.663L186.6 123.592L185.84 123.018L185.08 123.592L185.371 122.663L184.61 122.087H185.549L185.84 121.158Z" fill="var(--fill-0, white)"/>
<path id="Vector_26" d="M185.577 117.252L185.819 118.022H186.598L185.967 118.499L186.207 119.269L185.577 118.793L184.947 119.269L185.189 118.499L184.559 118.022H185.337L185.577 117.252Z" fill="var(--fill-0, white)"/>
<path id="Vector_27" d="M181.278 118.717L181.518 119.489H182.297L181.667 119.964L181.908 120.736L181.278 120.259L180.648 120.736L180.888 119.964L180.258 119.489H181.036L181.278 118.717Z" fill="var(--fill-0, white)"/>
<path id="Vector_28" d="M174.721 117.74L174.962 118.511H175.742L175.111 118.987L175.352 119.758L174.721 119.281L174.091 119.758L174.331 118.987L173.701 118.511H174.481L174.721 117.74Z" fill="var(--fill-0, white)"/>
<path id="Vector_29" d="M185.819 125.797L186.06 126.567H186.84L186.209 127.044L186.45 127.814L185.819 127.338L185.189 127.814L185.429 127.044L184.801 126.567H185.579L185.819 125.797Z" fill="var(--fill-0, white)"/>
<path id="Vector_30" d="M177.899 122.379L178.191 123.316H179.138L178.371 123.896L178.665 124.833L177.899 124.255L177.132 124.833L177.424 123.896L176.658 123.316H177.605L177.899 122.379Z" fill="var(--fill-0, white)"/>
<path id="Vector_31" d="M166.043 127.506L166.181 127.943H166.622L166.265 128.213L166.401 128.651L166.043 128.38L165.687 128.651L165.823 128.213L165.467 127.943H165.907L166.043 127.506Z" fill="var(--fill-0, white)"/>
<g id="Group">
<path id="Vector_32" d="M133.249 81.1681C133.469 82.349 132.809 83.0723 131.862 83.217C130.882 83.3664 130.029 82.7909 129.781 81.7609C129.521 80.6823 130.121 79.8363 131.167 79.6791C132.234 79.5187 133.06 80.1508 133.249 81.1681ZM130.304 81.6619C130.474 82.3915 131.055 82.967 131.813 82.8538C132.578 82.739 132.884 82.0361 132.732 81.2593C132.599 80.5785 132.056 79.9181 131.22 80.0439C130.388 80.1697 130.131 80.915 130.304 81.6619Z" fill="var(--fill-0, #009B3A)"/>
<path id="Vector_33" d="M135.329 79.3451C135.577 79.2727 135.938 79.213 136.287 79.1815C136.827 79.1344 137.188 79.1941 137.455 79.3702C137.672 79.5086 137.812 79.7366 137.847 80.0023C137.905 80.4567 137.625 80.7822 137.24 80.9363C137.24 80.941 137.24 80.9473 137.241 80.9521C137.548 81.0197 137.757 81.254 137.894 81.6046C138.081 82.0763 138.212 82.4034 138.307 82.5292C138.14 82.5418 137.974 82.5528 137.807 82.5653C137.734 82.4726 137.61 82.1817 137.444 81.7618C137.267 81.2948 137.038 81.1313 136.589 81.1565C136.435 81.1706 136.28 81.1848 136.126 81.1989C136.202 81.6958 136.277 82.1927 136.354 82.6896C136.193 82.7053 136.033 82.721 135.871 82.7367C135.69 81.6062 135.51 80.474 135.331 79.3435L135.329 79.3451ZM136.074 80.8624C136.242 80.8467 136.412 80.831 136.58 80.8168C137.108 80.7697 137.408 80.485 137.356 80.0904C137.296 79.6454 136.906 79.4787 136.374 79.5212C136.131 79.5432 135.961 79.5793 135.883 79.6076C135.947 80.0259 136.011 80.4442 136.076 80.864L136.074 80.8624Z" fill="var(--fill-0, #009B3A)"/>
<path id="Vector_34" d="M140.188 79.0357C140.491 78.9823 140.855 78.9367 141.256 78.9241C141.982 78.9021 142.51 79.0436 142.87 79.3219C143.234 79.6002 143.457 79.9996 143.489 80.5594C143.521 81.1239 143.356 81.5862 143.024 81.9085C142.692 82.2356 142.128 82.4196 141.401 82.4432C141.057 82.4542 140.766 82.4494 140.52 82.4353C140.41 81.3032 140.298 80.1695 140.188 79.0373V79.0357ZM140.971 82.0721C141.097 82.0878 141.276 82.0878 141.465 82.0815C142.501 82.05 143.03 81.5154 142.972 80.5798C142.926 79.7638 142.374 79.248 141.308 79.2795C141.048 79.2873 140.852 79.3156 140.722 79.3455C140.805 80.2544 140.889 81.1648 140.971 82.0736V82.0721Z" fill="var(--fill-0, #009B3A)"/>
<path id="Vector_35" d="M147.817 80.826C147.323 80.804 146.829 80.7851 146.334 80.771C146.343 81.1861 146.35 81.6012 146.36 82.0179C146.903 82.0336 147.444 82.0541 147.986 82.0792V82.4534C147.286 82.4189 146.584 82.3953 145.884 82.3795C145.852 81.227 145.82 80.0744 145.789 78.9218C146.493 78.9375 147.196 78.9627 147.898 78.9957C147.898 79.1199 147.898 79.2457 147.898 79.37C147.366 79.3448 146.834 79.3244 146.301 79.3102C146.309 79.675 146.317 80.0382 146.324 80.403C146.822 80.4172 147.319 80.4361 147.814 80.4581C147.814 80.5807 147.814 80.7049 147.814 80.8276L147.817 80.826Z" fill="var(--fill-0, #009B3A)"/>
<path id="Vector_36" d="M153.512 81.3894C153.518 80.9067 153.524 80.328 153.56 79.9003C153.554 79.9003 153.55 79.9003 153.544 79.8988C153.385 80.2871 153.195 80.6975 152.973 81.1504C152.715 81.6819 152.46 82.2149 152.21 82.7495C152.09 82.737 151.967 82.7259 151.846 82.7134C151.674 82.1473 151.496 81.5828 151.314 81.0183C151.154 80.5183 151.018 80.0591 150.923 79.6425C150.918 79.6425 150.915 79.6425 150.911 79.6425C150.883 80.0701 150.834 80.6456 150.781 81.1598C150.729 81.6488 150.678 82.1394 150.628 82.63C150.475 82.6174 150.322 82.6064 150.169 82.5939C150.288 81.4507 150.412 80.3076 150.539 79.166C150.753 79.1833 150.967 79.2006 151.18 79.2179C151.378 79.7918 151.573 80.3673 151.762 80.9413C151.9 81.38 152.008 81.7699 152.085 82.1363C152.09 82.1363 152.096 82.1363 152.102 82.1363C152.215 81.7982 152.369 81.4334 152.565 81.0167C152.823 80.4853 153.086 79.9554 153.354 79.427C153.567 79.4506 153.779 79.4742 153.993 79.4994C153.987 80.6535 153.978 81.8061 153.964 82.9587C153.808 82.9398 153.652 82.9209 153.496 82.9036C153.502 82.3973 153.507 81.891 153.51 81.3847L153.512 81.3894Z" fill="var(--fill-0, #009B3A)"/>
<path id="Vector_37" d="M161.321 82.5692C160.837 82.4686 160.351 82.3711 159.866 82.2799C159.803 82.6871 159.739 83.0944 159.676 83.5032C160.209 83.6039 160.741 83.7108 161.272 83.8224C161.25 83.9451 161.229 84.0661 161.207 84.1888C160.522 84.0441 159.835 83.9089 159.146 83.7815C159.314 82.6494 159.482 81.5173 159.65 80.3867C160.342 80.5141 161.031 80.6493 161.72 80.794C161.698 80.9166 161.677 81.0377 161.656 81.1603C161.134 81.0518 160.612 80.9465 160.089 80.8474C160.034 81.2044 159.979 81.5613 159.923 81.9198C160.41 82.0126 160.898 82.1101 161.385 82.2107C161.363 82.3318 161.343 82.4513 161.322 82.5724L161.321 82.5692Z" fill="var(--fill-0, #009B3A)"/>
<path id="Vector_38" d="M167.002 82.0957C167.245 82.1256 167.56 82.1806 167.951 82.2938C168.431 82.4306 168.754 82.6335 168.928 82.8756C169.09 83.0942 169.144 83.3709 169.061 83.6634C168.977 83.9621 168.815 84.165 168.581 84.2813C168.264 84.4449 167.825 84.448 167.365 84.3159C167.224 84.2751 167.094 84.2342 166.991 84.1791C166.878 84.6226 166.767 85.0644 166.653 85.5078C166.499 85.4638 166.343 85.4213 166.188 85.3789C166.459 84.2845 166.731 83.1901 167.002 82.0957ZM167.082 83.8285C167.18 83.882 167.308 83.9291 167.466 83.9747C168.038 84.1383 168.454 83.9936 168.579 83.5376C168.7 83.102 168.408 82.7876 167.874 82.6335C167.663 82.5737 167.498 82.5423 167.409 82.5391C167.3 82.9684 167.19 83.3992 167.08 83.8285H167.082Z" fill="var(--fill-0, #009B3A)"/>
<path id="Vector_39" d="M171.618 83.5605C171.875 83.5983 172.229 83.6911 172.557 83.8043C173.068 83.9804 173.37 84.1801 173.536 84.4458C173.671 84.6565 173.7 84.9144 173.611 85.1628C173.463 85.589 173.065 85.7619 172.646 85.743C172.646 85.7478 172.643 85.7525 172.642 85.7572C172.891 85.9427 172.977 86.2321 172.946 86.5984C172.908 87.0906 172.882 87.4334 172.912 87.5843C172.755 87.5277 172.599 87.4695 172.441 87.4145C172.415 87.3029 172.432 86.9963 172.467 86.5576C172.513 86.0733 172.377 85.8358 171.958 85.6754C171.811 85.6251 171.666 85.5748 171.519 85.5245C171.367 85.9946 171.218 86.4648 171.068 86.9349C170.915 86.883 170.762 86.8312 170.61 86.7808C170.947 85.7085 171.283 84.6345 171.62 83.5621L171.618 83.5605ZM171.621 85.2053C171.782 85.2603 171.941 85.3154 172.1 85.3704C172.6 85.5434 172.998 85.4128 173.125 85.0433C173.267 84.6266 172.986 84.32 172.484 84.1408C172.255 84.0621 172.083 84.0244 172.001 84.0181C171.874 84.4144 171.747 84.8106 171.62 85.2053H171.621Z" fill="var(--fill-0, #009B3A)"/>
<path id="Vector_40" d="M178.648 87.9528C178.177 89.0299 177.214 89.2846 176.333 88.9183C175.422 88.5393 175.022 87.6352 175.385 86.6666C175.766 85.6508 176.74 85.2671 177.711 85.6728C178.703 86.0864 179.052 87.0251 178.648 87.9528ZM175.882 86.8521C175.62 87.533 175.79 88.3035 176.495 88.5959C177.205 88.8915 177.856 88.4749 178.16 87.7626C178.426 87.1383 178.333 86.3222 177.555 85.9983C176.781 85.6775 176.149 86.154 175.882 86.8537V86.8521Z" fill="var(--fill-0, #009B3A)"/>
<path id="Vector_41" d="M182.688 91.6726C182.462 91.6364 182.026 91.5437 181.572 91.3188C181.063 91.0657 180.699 90.7449 180.502 90.2968C180.33 89.9005 180.336 89.4005 180.561 88.9193C180.992 87.9979 182.035 87.6583 183.222 88.2479C183.629 88.4507 183.908 88.6898 184.025 88.8297C183.933 88.9177 183.843 89.0058 183.751 89.0939C183.603 88.9272 183.399 88.7495 183.044 88.5734C182.19 88.1473 181.407 88.3517 181.043 89.1253C180.674 89.9099 180.977 90.6175 181.763 91.0075C182.049 91.149 182.263 91.2119 182.385 91.2182C182.54 90.9163 182.693 90.6128 182.847 90.3109C182.616 90.193 182.384 90.0766 182.151 89.9618C182.203 89.8565 182.255 89.7496 182.309 89.6442C182.688 89.8329 183.066 90.0232 183.442 90.215C183.191 90.7009 182.94 91.1867 182.69 91.6726H182.688Z" fill="var(--fill-0, #009B3A)"/>
<path id="Vector_42" d="M186.392 89.9082C186.64 89.9915 186.975 90.1488 187.28 90.3217C187.754 90.5891 188.014 90.8406 188.129 91.1284C188.222 91.358 188.199 91.6158 188.063 91.8407C187.831 92.2275 187.401 92.3203 186.988 92.2244C186.985 92.2291 186.982 92.2338 186.981 92.2369C187.192 92.4634 187.221 92.7621 187.118 93.1128C186.984 93.5845 186.89 93.9115 186.89 94.0656C186.745 93.9807 186.6 93.8958 186.456 93.8109C186.452 93.6977 186.528 93.4021 186.65 92.9823C186.791 92.52 186.702 92.2637 186.317 92.0278C186.181 91.9508 186.045 91.8753 185.909 91.7998C185.666 92.2291 185.423 92.6583 185.181 93.0876C185.039 93.009 184.898 92.9304 184.756 92.8517C185.303 91.8706 185.849 90.8894 186.395 89.9098L186.392 89.9082ZM186.071 91.5089C186.219 91.5907 186.368 91.674 186.516 91.7589C186.979 92.0215 187.403 91.9681 187.602 91.6331C187.826 91.2542 187.606 90.9035 187.141 90.6347C186.927 90.5152 186.767 90.446 186.684 90.424C186.479 90.7856 186.276 91.1473 186.071 91.5089Z" fill="var(--fill-0, #009B3A)"/>
<path id="Vector_43" d="M191.351 94.9551C190.932 94.6799 190.511 94.4095 190.088 94.1422C189.864 94.4865 189.64 94.8309 189.416 95.1736C189.88 95.4677 190.342 95.7649 190.8 96.0668C190.731 96.169 190.661 96.2712 190.592 96.3718C190.001 95.9819 189.403 95.5982 188.802 95.224C189.416 94.2664 190.031 93.3072 190.646 92.3496C191.25 92.727 191.848 93.1107 192.444 93.5022C192.375 93.6044 192.305 93.7066 192.236 93.8088C191.785 93.5116 191.332 93.2207 190.877 92.933C190.681 93.2349 190.484 93.5368 190.288 93.8371C190.713 94.106 191.135 94.378 191.556 94.6548C191.487 94.7554 191.42 94.856 191.351 94.9567V94.9551Z" fill="var(--fill-0, #009B3A)"/>
<path id="Vector_44" d="M192.773 97.2681C192.883 97.493 193.086 97.7603 193.361 97.9569C193.771 98.2493 194.152 98.232 194.361 97.9584C194.554 97.7053 194.499 97.4364 194.181 96.9898C193.787 96.4646 193.632 96.0071 193.915 95.6155C194.227 95.1831 194.881 95.1548 195.508 95.6061C195.839 95.8435 196.027 96.0826 196.117 96.2555C196.005 96.3231 195.895 96.3907 195.784 96.4584C195.716 96.3341 195.565 96.0967 195.274 95.8876C194.835 95.5731 194.502 95.68 194.365 95.8687C194.175 96.1266 194.277 96.3907 194.605 96.8483C195.005 97.4128 195.102 97.8311 194.794 98.2289C194.47 98.6471 193.843 98.7478 193.117 98.2289C192.819 98.0166 192.549 97.71 192.453 97.4961C192.56 97.4191 192.666 97.3436 192.773 97.2681Z" fill="var(--fill-0, #009B3A)"/>
<path id="Vector_45" d="M196.394 99.8456C196.492 100.077 196.68 100.354 196.947 100.566C197.342 100.88 197.726 100.887 197.952 100.624C198.162 100.382 198.12 100.111 197.825 99.6475C197.457 99.1003 197.328 98.6349 197.634 98.2622C197.97 97.8502 198.629 97.8565 199.235 98.3424C199.553 98.5971 199.729 98.8471 199.81 99.0233C199.694 99.0846 199.579 99.1459 199.464 99.2072C199.405 99.0799 199.266 98.8346 198.984 98.6097C198.561 98.2716 198.221 98.3597 198.071 98.539C197.866 98.7843 197.955 99.0531 198.258 99.5296C198.629 100.115 198.703 100.539 198.371 100.918C198.022 101.316 197.388 101.382 196.686 100.824C196.398 100.596 196.145 100.273 196.061 100.055C196.172 99.984 196.282 99.9148 196.394 99.8441V99.8456Z" fill="var(--fill-0, #009B3A)"/>
<path id="Vector_46" d="M203.246 104.106C202.402 104.935 201.375 104.825 200.651 104.174C199.904 103.499 199.839 102.523 200.541 101.757C201.275 100.954 202.358 100.944 203.155 101.664C203.97 102.4 203.973 103.394 203.246 104.108V104.106ZM200.956 102.103C200.456 102.641 200.344 103.411 200.924 103.932C201.506 104.458 202.289 104.306 202.841 103.754C203.324 103.273 203.526 102.484 202.887 101.906C202.252 101.334 201.468 101.551 200.956 102.103Z" fill="var(--fill-0, #009B3A)"/>
</g>
</g>
</g>
</svg>
