<svg preserveAspectRatio="none" width="100%" height="100%" overflow="visible" style="display: block;" viewBox="0 0 62.0007 46.9401" fill="none" xmlns="http://www.w3.org/2000/svg">
<g id="Group">
<path id="Vector" fill-rule="evenodd" clip-rule="evenodd" d="M44.1124 10.1991C44.4834 9.82852 44.9863 9.62038 45.5107 9.62038C46.0351 9.62038 46.538 9.82852 46.909 10.1991L46.9143 10.2043L46.9222 10.2096L46.9407 10.2281L46.9935 10.2809L47.157 10.4629C47.2889 10.6133 47.4736 10.827 47.6873 11.0987C50.1251 14.2673 51.4469 18.1529 51.4469 22.1507C51.4469 26.1485 50.1251 30.0341 47.6873 33.2026C47.4664 33.4846 47.234 33.7575 46.9908 34.0205L46.938 34.0733L46.9222 34.0917L46.9143 34.097L46.9117 34.0997L45.5661 32.7594L46.9117 34.1049C46.5405 34.4761 46.037 34.6847 45.512 34.6847C44.9871 34.6847 44.4836 34.4761 44.1124 34.1049C43.7412 33.7337 43.5327 33.2303 43.5327 32.7053C43.5327 32.1803 43.7412 31.6769 44.1124 31.3057L44.1098 31.3083L44.1045 31.311L44.1177 31.2978L44.2047 31.2028C44.2892 31.1113 44.4114 30.9645 44.5715 30.7622C46.2405 28.5833 47.2408 25.9664 47.4506 23.2298C47.6605 20.4931 47.0708 17.7543 45.7534 15.3464C45.4095 14.7127 45.0142 14.1083 44.5715 13.5392C44.4282 13.354 44.2768 13.1753 44.1177 13.0036L44.1045 12.9904C43.7366 12.6186 43.5309 12.1162 43.5324 11.5931C43.5339 11.07 43.7424 10.5688 44.1124 10.1991Z" fill="var(--fill-0, white)"/>
<path id="Vector_2" fill-rule="evenodd" clip-rule="evenodd" d="M52.0278 2.28409C52.3988 1.91354 52.9017 1.7054 53.4261 1.7054C53.9505 1.7054 54.4534 1.91354 54.8244 2.28409L54.8323 2.28937L54.8402 2.29728L54.864 2.32367C54.9784 2.43647 55.0875 2.55444 55.1911 2.6772C55.3996 2.91201 55.6871 3.25236 56.0248 3.69296C56.7029 4.57152 57.592 5.8643 58.4758 7.54491C60.2435 10.9061 62.0007 15.8372 62.0007 22.1507C62.0007 28.4642 60.2435 33.3952 58.4758 36.7591C57.7717 38.1115 56.9516 39.4003 56.0248 40.611C55.6602 41.0851 55.2728 41.5412 54.864 41.9777L54.8376 42.0041L54.8323 42.012L54.827 42.0146L53.4261 40.619L54.8244 42.0173C54.4514 42.3779 53.9516 42.5776 53.4328 42.5733C52.914 42.5691 52.4176 42.3612 52.0505 41.9945C51.6835 41.6278 51.4752 41.1316 51.4704 40.6128C51.4657 40.094 51.6649 39.594 52.0251 39.2207L52.0621 39.1837L52.2283 38.999C52.3848 38.8267 52.6047 38.5593 52.8879 38.197C53.4472 37.4688 54.207 36.3686 54.9722 34.9149C56.5024 32.0127 58.0432 27.7096 58.0432 22.1507C58.0432 16.5917 56.5024 12.2886 54.9722 9.38647C54.3715 8.23546 53.6742 7.1375 52.8879 6.10439C52.6261 5.76442 52.3506 5.43524 52.0621 5.11765L52.0251 5.08072C51.6546 4.7097 51.4465 4.20677 51.4465 3.6824C51.4465 3.15804 51.6572 2.65511 52.0278 2.28409ZM31.0979 0.769693C34.1663 -1.2539 38.2557 0.949099 38.2557 4.62429V42.3154C38.2557 45.9932 34.1663 48.1936 31.0979 46.17L15.268 35.7354C15.1609 35.664 15.0353 35.6255 14.9065 35.6246H7.2554C5.33115 35.6246 3.48571 34.8602 2.12506 33.4996C0.764406 32.1389 0 30.2935 0 28.3692V18.5705C0 17.6177 0.187666 16.6742 0.552284 15.794C0.916902 14.9137 1.45133 14.1139 2.12506 13.4401C2.79878 12.7664 3.59861 12.232 4.47888 11.8674C5.35914 11.5027 6.3026 11.3151 7.2554 11.3151H14.9065C15.0359 11.3155 15.1625 11.2779 15.2706 11.2069L31.0979 0.769693Z" fill="var(--fill-0, white)"/>
</g>
</svg>
